<?xml version="1.0"?>
<svg width="40" height="40" xmlns="http://www.w3.org/2000/svg" xmlns:svg="http://www.w3.org/2000/svg">
 <defs>
  <filter color-interpolation-filters="sRGB" filterUnits="userSpaceOnUse" height="40" id="filter0_dd_9200_31668" width="40" x="0" y="0">
   <feFlood flood-opacity="0" result="BackgroundImageFix"/>
   <feColorMatrix in="SourceAlpha" result="hardAlpha" type="matrix" values="0 0 0 0 0 0 0 0 0 0 0 0 0 0 0 0 0 0 127 0"/>
   <feMorphology in="SourceAlpha" operator="erode" radius="2"/>
   <feOffset dy="2"/>
   <feGaussianBlur stdDeviation="2"/>
   <feComposite in2="hardAlpha" operator="out"/>
   <feColorMatrix type="matrix" values="0 0 0 0 0.0352941 0 0 0 0 0.0352941 0 0 0 0 0.0431373 0 0 0 0.06 0"/>
   <feBlend in2="BackgroundImageFix"/>
   <feColorMatrix in="SourceAlpha" result="hardAlpha" type="matrix" values="0 0 0 0 0 0 0 0 0 0 0 0 0 0 0 0 0 0 127 0"/>
   <feMorphology in="SourceAlpha" operator="erode" radius="2"/>
   <feOffset dy="3"/>
   <feGaussianBlur stdDeviation="5"/>
   <feComposite in2="hardAlpha" operator="out"/>
   <feColorMatrix type="matrix" values="0 0 0 0 0.0352941 0 0 0 0 0.0352941 0 0 0 0 0.0431373 0 0 0 0.08 0"/>
   <feBlend in2="effect1_dropShadow_9200_31668"/>
   <feBlend in="SourceGraphic" in2="effect2_dropShadow_9200_31668"/>
  </filter>
 </defs>
 <g class="layer">
  <title>Layer 1</title>
  <g filter="url(#filter0_dd_9200_31668)" id="svg_1">
   <rect fill="#17B26A" height="40" id="svg_2" rx="8" width="40" x="0" y="0"/>
   <path clip-rule="evenodd" d="m11.12,12.22c0,-1.83 1.48,-3.33 3.33,-3.33l13.33,0c0.6,0 1.1,0.5 1.1,1.12l0,20c0,0.62 -0.5,1.12 -1.1,1.12l-13.33,0c-1.85,0 -3.33,-1.5 -3.33,-3.33l0,-15.57zm2.22,12.42l0,-12.42c0,-0.6 0.5,-1.1 1.12,-1.1l12.22,0l0,13.33l-12.22,0c-0.4,0 -0.77,0.07 -1.12,0.18zm13.33,2.03l-12.22,0c-0.62,0 -1.12,0.5 -1.12,1.12c0,0.6 0.5,1.1 1.12,1.1l12.22,0l0,-2.22z" fill="white" fill-rule="evenodd" id="svg_4"/>
   <path d="m20.2,14.9c0.12,-0.05 0.2,-0.15 0.25,-0.25l0.72,-1.43c0.2,-0.42 0.8,-0.42 1,0l0.72,1.43c0.05,0.1 0.13,0.2 0.25,0.25l1.43,0.72c0.4,0.2 0.4,0.78 0,0.98l-1.43,0.72c-0.12,0.07 -0.2,0.15 -0.25,0.25l-0.72,1.43c-0.2,0.42 -0.8,0.42 -1,0l-0.72,-1.43c-0.05,-0.1 -0.13,-0.18 -0.25,-0.25l-1.43,-0.72c-0.4,-0.2 -0.4,-0.78 0,-0.98l1.43,-0.72z" fill="white" id="svg_5"/>
   <path d="m16.2,19.68c0.07,-0.03 0.12,-0.08 0.15,-0.15l0.57,-1.17c0.13,-0.23 0.48,-0.23 0.6,0l0.58,1.17c0.03,0.07 0.08,0.12 0.15,0.15l1.15,0.57c0.25,0.13 0.25,0.48 0,0.6l-1.15,0.58c-0.07,0.03 -0.12,0.08 -0.15,0.15l-0.58,1.15c-0.12,0.25 -0.47,0.25 -0.6,0l-0.57,-1.15c-0.03,-0.07 -0.08,-0.12 -0.15,-0.15l-1.17,-0.58c-0.23,-0.12 -0.23,-0.47 0,-0.6l1.17,-0.57z" fill="white" id="svg_6"/>
  </g>
 </g>
</svg>