<svg xmlns="http://www.w3.org/2000/svg" width="46" height="49" fill="none" viewBox="0 0 46 49"><path fill="#0F172A" d="M2.833 19.29A2.837 2.837 0 0 1 0 16.458a2.837 2.837 0 0 1 2.833-2.833 2.837 2.837 0 0 1 2.834 2.833 2.837 2.837 0 0 1-2.834 2.834m0-4.554a1.723 1.723 0 0 0 0 3.445c.95 0 1.723-.772 1.723-1.722s-.772-1.723-1.723-1.723M2.833 27.283A2.837 2.837 0 0 1 0 24.449a2.837 2.837 0 0 1 2.833-2.833 2.837 2.837 0 0 1 2.834 2.833 2.837 2.837 0 0 1-2.834 2.834m0-4.555c-.948 0-1.72.772-1.72 1.721s.772 1.723 1.72 1.723a1.722 1.722 0 1 0 0-3.443M2.833 35.267A2.837 2.837 0 0 1 0 32.434 2.837 2.837 0 0 1 2.833 29.6a2.837 2.837 0 0 1 2.834 2.834 2.837 2.837 0 0 1-2.834 2.833m0-4.554a1.723 1.723 0 0 0 0 3.445 1.724 1.724 0 0 0 0-3.445M24.38 19.29a2.837 2.837 0 0 1-2.833-2.833 2.837 2.837 0 0 1 2.833-2.833 2.837 2.837 0 0 1 2.834 2.833 2.837 2.837 0 0 1-2.834 2.834m0-4.554a1.724 1.724 0 1 0 1.723 1.723c0-.95-.772-1.723-1.723-1.723M24.38 27.283a2.837 2.837 0 0 1-2.833-2.834 2.837 2.837 0 0 1 2.833-2.833 2.837 2.837 0 0 1 2.834 2.833 2.837 2.837 0 0 1-2.834 2.834m0-4.555c-.948 0-1.722.772-1.722 1.721s.772 1.723 1.722 1.723 1.723-.772 1.723-1.723c0-.95-.772-1.72-1.723-1.72M24.38 35.267a2.837 2.837 0 0 1-2.833-2.833A2.837 2.837 0 0 1 24.38 29.6a2.837 2.837 0 0 1 2.834 2.834 2.837 2.837 0 0 1-2.834 2.833m0-4.554c-.948 0-1.722.772-1.722 1.722a1.724 1.724 0 0 0 3.445 0c0-.95-.772-1.722-1.723-1.722M13.607 23.283a2.837 2.837 0 0 1-2.834-2.834 2.837 2.837 0 0 1 2.834-2.833 2.837 2.837 0 0 1 2.833 2.833 2.837 2.837 0 0 1-2.833 2.834m0-4.555a1.724 1.724 0 1 0 1.723 1.723c0-.95-.773-1.723-1.723-1.723M13.607 15.298a2.837 2.837 0 0 1-2.834-2.833 2.837 2.837 0 0 1 2.834-2.834 2.837 2.837 0 0 1 2.833 2.834 2.837 2.837 0 0 1-2.833 2.833m0-4.554a1.724 1.724 0 0 0 0 3.445 1.724 1.724 0 0 0 0-3.445M13.607 31.283a2.837 2.837 0 0 1-2.834-2.834 2.837 2.837 0 0 1 2.834-2.833 2.837 2.837 0 0 1 2.833 2.833 2.837 2.837 0 0 1-2.833 2.834m0-4.555a1.724 1.724 0 1 0 1.723 1.723c0-.95-.773-1.723-1.723-1.723M13.607 39.267a2.837 2.837 0 0 1-2.834-2.833 2.837 2.837 0 0 1 2.834-2.834 2.837 2.837 0 0 1 2.833 2.834 2.837 2.837 0 0 1-2.833 2.833m0-4.554c-.949 0-1.723.772-1.723 1.722s.772 1.723 1.723 1.723a1.724 1.724 0 0 0 0-3.445"/><path fill="#0F172A" d="M9.098 19.781a.9.9 0 0 1-.342-.066L6.91 18.98a.925.925 0 1 1 .687-1.72l1.845.736a.926.926 0 0 1-.344 1.785zM9.098 27.617a.9.9 0 0 1-.342-.066l-1.845-.736a.925.925 0 1 1 .687-1.719l1.845.735a.926.926 0 0 1-.344 1.785zM19.918 23.702a.9.9 0 0 1-.342-.065l-1.844-.736a.925.925 0 0 1 .685-1.719l1.845.735a.926.926 0 0 1-.344 1.785M19.918 15.867a.9.9 0 0 1-.342-.066l-1.844-.735a.926.926 0 0 1 .685-1.72l1.845.736a.926.926 0 0 1-.344 1.785M19.918 31.531a.9.9 0 0 1-.342-.066l-1.844-.735a.925.925 0 0 1 .685-1.72l1.845.736a.926.926 0 0 1-.344 1.785M7.302 31.812a.926.926 0 0 1-.344-1.785l1.845-.736a.925.925 0 1 1 .687 1.72l-1.845.735a.9.9 0 0 1-.342.066zM7.302 24.023a.926.926 0 0 1-.344-1.785l1.845-.736a.925.925 0 1 1 .687 1.72l-1.845.735a.9.9 0 0 1-.342.066zM7.302 15.843a.926.926 0 0 1-.344-1.785l1.845-.735a.925.925 0 1 1 .687 1.72l-1.845.734a.9.9 0 0 1-.342.066zM9.098 36.015a.9.9 0 0 1-.342-.066l-1.845-.735a.925.925 0 0 1 .686-1.719l1.844.735a.925.925 0 0 1-.343 1.785M18.075 19.782a.926.926 0 0 1-.343-1.787l1.844-.735a.927.927 0 0 1 .687 1.721l-1.844.735a.9.9 0 0 1-.342.066zM18.075 27.618a.926.926 0 0 1-.343-1.787l1.844-.735a.927.927 0 0 1 .687 1.721l-1.844.735a.9.9 0 0 1-.342.066zM18.075 36.015a.925.925 0 0 1-.344-1.785l1.845-.736a.925.925 0 1 1 .686 1.72l-1.845.735a.9.9 0 0 1-.342.066"/></svg>