<?xml version="1.0" encoding="UTF-8"?>
<svg width="512px" height="512px" viewBox="0 0 512 512" version="1.1" xmlns="http://www.w3.org/2000/svg" xmlns:xlink="http://www.w3.org/1999/xlink">
    <title>logo0</title>
    <g id="logo0" stroke="none" stroke-width="1" fill="none" fill-rule="evenodd">
        <rect id="矩形" fill="#0005DE" x="0" y="0" width="512" height="512"></rect>
        <g id="编组-92" transform="translate(64, 136)" fill="#FFFFFF" fill-rule="nonzero">
            <path d="M80.1750158,2.84217094e-14 C132.034893,2.84217094e-14 160.350032,30.5623266 160.350032,87.5120215 L160.350811,106.941722 C147.043441,104.735854 133.682857,101.096526 120.248904,96.0080194 L120.2485,87.5120215 C120.2485,55.5070011 106.520442,37.4278986 80.1750158,37.4278986 C53.8295893,37.4278986 40.1015319,55.5070011 40.1015319,87.5120215 L40.1015319,152.010214 C40.1015319,184.146092 53.9048491,202.572101 80.1750158,202.572101 C103.813373,202.572101 117.357676,187.653084 119.834232,161.251026 C132.975423,165.079715 146.154871,167.850849 159.362705,169.557854 C153.942557,215.411866 126.312559,240 80.1750158,240 C28.4621128,240 -1.42108547e-14,209.110244 -1.42108547e-14,152.010214 L-1.42108547e-14,87.5120215 C-1.42108547e-14,30.5623266 28.315139,2.84217094e-14 80.1750158,2.84217094e-14 Z M303.824984,2.84217094e-14 C355.684861,2.84217094e-14 384,30.5623266 384,87.5120215 L384,152.010214 C384,209.110244 355.537887,240 303.824984,240 C257.609504,240 229.964148,215.328726 224.608666,169.326308 C237.812568,167.525144 250.985612,164.661421 264.120629,160.741207 C266.469016,187.461114 280.03503,202.572101 303.824984,202.572101 C330.095151,202.572101 343.898468,184.146092 343.898468,152.010214 L343.898468,87.5120215 C343.898468,55.5070011 330.170411,37.4278986 303.824984,37.4278986 C277.479558,37.4278986 263.7515,55.5070011 263.7515,87.5120215 L263.751552,95.3271158 C250.316667,100.541167 236.955977,104.306549 223.649353,106.63896 L223.649968,87.5120215 C223.649968,30.5623266 251.965107,2.84217094e-14 303.824984,2.84217094e-14 Z M191.112339,153.933805 C180.884706,153.933805 170.66441,153.247081 160.453631,151.875761 L160.350428,151.861878 L160.263605,151.850161 C159.783543,151.785288 159.303501,151.718902 158.823481,151.651003 L160.350428,151.861878 C159.787014,151.785956 159.223628,151.707949 158.660273,151.627858 C158.235795,151.567512 157.811132,151.505953 157.386485,151.443209 C157.258611,151.424315 157.130951,151.405345 157.003292,151.386269 C156.020767,151.239445 155.038117,151.086248 154.055559,150.92671 C153.982418,150.914834 153.909084,150.902891 153.835751,150.890914 C152.81458,150.72412 151.79383,150.550534 150.773182,150.370107 C150.692915,150.355918 150.611915,150.341556 150.530915,150.327151 C150.187698,150.266112 149.84511,150.204412 149.502533,150.141941 C149.259781,150.097674 149.016768,150.052971 148.77376,150.007879 C148.61963,149.979279 148.465927,149.950603 148.312227,149.921771 C147.853087,149.835646 147.393442,149.748034 146.933818,149.659034 C146.650608,149.604194 146.367754,149.548896 146.084908,149.493072 C145.932554,149.463002 145.780189,149.432778 145.627826,149.402401 C145.304204,149.33788 144.980536,149.272659 144.656879,149.20675 C144.473066,149.169319 144.289706,149.131758 144.10635,149.093976 C143.661601,149.002334 143.216317,148.909274 142.771054,148.814912 C142.625438,148.784053 142.479087,148.752898 142.332739,148.721601 C141.97753,148.645639 141.622943,148.56898 141.268369,148.491496 C141.152864,148.466255 141.037183,148.440888 140.921502,148.415432 C140.559398,148.33575 140.197344,148.255215 139.835305,148.173819 C139.718077,148.147463 139.60074,148.120991 139.483404,148.09443 L139.261037,148.043983 C138.817839,147.943221 138.374662,147.841169 137.931505,147.737826 C137.844137,147.717452 137.756813,147.697038 137.669489,147.676574 C137.287064,147.586953 136.904728,147.496388 136.522408,147.404863 C136.384323,147.371807 136.245983,147.338563 136.107646,147.305194 C135.67434,147.200673 135.241037,147.094914 134.807755,146.987921 C134.747178,146.972962 134.68717,146.95812 134.627161,146.943254 L134.807755,146.987921 C134.270687,146.8553 133.73365,146.720783 133.196645,146.584371 C133.035373,146.543404 132.874038,146.50225 132.712707,146.460924 C132.417323,146.38526 132.122007,146.309039 131.826701,146.232244 C131.644252,146.184797 131.461907,146.137158 131.279565,146.089301 C130.277895,145.826403 129.276139,145.556857 128.274498,145.280715 C128.239419,145.271044 128.204073,145.261291 128.168727,145.25153 C127.777537,145.143501 127.386554,145.034519 126.995589,144.924532 C126.182319,144.695741 125.369446,144.462695 124.55665,144.225306 C124.284464,144.14581 124.012083,144.065767 123.739711,143.985236 C123.553529,143.930188 123.367515,143.874962 123.181505,143.819508 C122.25355,143.542862 121.325558,143.260512 120.397669,142.9725 C120.348007,142.957085 120.298349,142.941655 120.248692,142.926209 C105.042687,138.196347 89.8643059,131.945869 74.7208094,124.181864 L67.4380522,137.045993 L55.8443996,96.5191621 L93.6815622,90.68807 L87.8669663,100.960964 C98.7012565,106.444428 109.514038,111.063734 120.308866,114.82235 L120.248305,114.801254 C121.221032,115.140233 122.193613,115.472223 123.166051,115.797227 C123.221143,115.815639 123.275794,115.833883 123.330445,115.852104 L123.166051,115.797227 C123.681263,115.969418 124.196435,116.139649 124.711567,116.307919 L126.139227,116.769284 C126.220253,116.795185 126.301277,116.821038 126.382301,116.846842 C126.802613,116.980701 127.222302,117.113068 127.641965,117.244133 L126.382301,116.846842 C126.8351,116.991049 127.287869,117.13374 127.740607,117.274917 L127.641965,117.244133 C128.087961,117.383423 128.533928,117.521242 128.979865,117.657592 L127.740607,117.274917 C128.268024,117.43938 128.7954,117.601788 129.322735,117.76214 L128.979865,117.657592 C129.372144,117.777535 129.7644,117.896341 130.156633,118.014009 L129.322735,117.76214 C129.922737,117.944589 130.522687,118.124377 131.122585,118.301505 C131.403746,118.384522 131.684826,118.466933 131.965895,118.548761 L131.122585,118.301505 C131.559844,118.430612 131.997075,118.558305 132.434279,118.684585 L131.965895,118.548761 C132.410745,118.678271 132.855566,118.806318 133.30036,118.932902 L132.434279,118.684585 C132.915434,118.82356 133.396556,118.960823 133.877645,119.096375 L133.30036,118.932902 C134.346408,119.230598 135.392301,119.520204 136.438042,119.801724 C136.584542,119.841162 136.730571,119.880316 136.876597,119.919313 L136.438042,119.801724 C136.918243,119.930997 137.398412,120.058564 137.878549,120.184427 L136.876597,119.919313 C137.323676,120.038708 137.770728,120.156625 138.217752,120.273064 L137.878549,120.184427 C138.896586,120.451295 139.914479,120.710499 140.932232,120.962041 C141.076535,120.997706 141.220504,121.033135 141.364471,121.068412 L140.932232,120.962041 C141.343934,121.063795 141.755613,121.164295 142.167269,121.263541 L141.364471,121.068412 C141.850646,121.18754 142.336789,121.304921 142.822901,121.420553 L142.167269,121.263541 C142.605591,121.369217 143.043887,121.473471 143.482158,121.576305 L142.822901,121.420553 C143.371525,121.551055 143.920108,121.679331 144.468652,121.805381 C144.755064,121.871196 145.041847,121.93649 145.328619,122.001176 L144.468652,121.805381 C144.99694,121.926776 145.525192,122.046106 146.053407,122.163372 L145.328619,122.001176 C145.745867,122.095292 146.163092,122.188121 146.580294,122.279662 L146.053407,122.163372 C146.431081,122.247218 146.808736,122.330008 147.186373,122.411743 L146.580294,122.279662 C147.653145,122.515063 148.725847,122.741947 149.798403,122.96032 C149.975452,122.996367 150.152435,123.03217 150.329413,123.06774 L149.798403,122.96032 C150.250729,123.052413 150.703029,123.142993 151.155303,123.232059 L150.329413,123.06774 C150.770027,123.156299 151.210616,123.243421 151.65118,123.329107 L151.155303,123.232059 C152.219831,123.441695 153.284217,123.642945 154.348464,123.835813 C154.4291,123.850426 154.509801,123.865003 154.590502,123.879532 L154.348464,123.835813 C154.786237,123.915148 155.223987,123.993065 155.661713,124.069564 L154.590502,123.879532 C155.129459,123.976563 155.668381,124.071444 156.207268,124.164175 L155.661713,124.069564 C156.092454,124.144842 156.523173,124.218746 156.953869,124.291278 L156.207268,124.164175 C156.626656,124.236343 157.046023,124.307209 157.465369,124.376774 L156.953869,124.291278 C157.556577,124.392777 158.159241,124.491588 158.761862,124.58771 L157.465369,124.376774 C158.025473,124.469688 158.585539,124.560281 159.145569,124.648552 L158.761862,124.58771 C159.236493,124.663417 159.711097,124.737457 160.185674,124.809829 L159.145569,124.648552 C169.813462,126.330009 180.467896,127.169046 191.112339,127.169046 C201.946286,127.169046 212.790583,126.299868 223.648887,124.557946 L224.98224,124.33967 C225.188639,124.305204 225.395043,124.270423 225.601453,124.235327 C225.814045,124.19918 226.027036,124.16263 226.240032,124.125744 L225.601453,124.235327 C226.043347,124.160191 226.485264,124.083609 226.927206,124.005582 L226.240032,124.125744 C226.760356,124.035637 227.280712,123.943526 227.801102,123.849411 L226.927206,124.005582 C227.344339,123.931934 227.761494,123.856999 228.17867,123.780776 L227.801102,123.849411 C228.365497,123.747338 228.929931,123.642907 229.494404,123.536117 L228.17867,123.780776 C228.722863,123.681345 229.267092,123.579722 229.811358,123.475908 L229.494404,123.536117 C229.988193,123.4427 230.482013,123.347479 230.975863,123.250453 L229.811358,123.475908 C230.25828,123.390661 230.705227,123.303935 231.152198,123.215732 L230.975863,123.250453 C231.401754,123.166778 231.827668,123.081761 232.253605,122.995402 L231.152198,123.215732 C231.674166,123.112729 232.196167,123.00771 232.718203,122.900674 L232.253605,122.995402 C233.311732,122.780866 234.370001,122.558044 235.428415,122.326934 C235.515396,122.307941 235.60209,122.288956 235.688785,122.269915 L235.428415,122.326934 C235.909785,122.221825 236.391185,122.115001 236.872616,122.006462 L235.688785,122.269915 C236.13934,122.170958 236.589922,122.070498 237.04053,121.968537 L236.872616,122.006462 C237.838477,121.788709 238.804461,121.564053 239.77057,121.332494 C239.90695,121.299806 240.043258,121.266998 240.179569,121.234053 L239.77057,121.332494 C240.296501,121.206437 240.82247,121.078334 241.348475,120.948185 L240.179569,121.234053 C240.627827,121.125713 241.076112,121.015887 241.524425,120.904574 L241.348475,120.948185 C241.814441,120.832892 242.280435,120.715992 242.74646,120.597487 L241.524425,120.904574 C242.046068,120.775054 242.567747,120.643521 243.089464,120.509975 C243.522186,120.39921 243.954914,120.287064 244.387668,120.173534 L243.089464,120.509975 C243.565843,120.388035 244.042253,120.264416 244.518694,120.139118 L244.387668,120.173534 C244.790487,120.067857 245.193328,119.96098 245.596192,119.852903 L244.518694,120.139118 C245.059539,119.996883 245.600425,119.852485 246.141351,119.705924 L245.596192,119.852903 C246.075272,119.72438 246.554384,119.594159 247.033528,119.46224 L246.141351,119.705924 C247.18582,119.422929 248.230441,119.131868 249.275218,118.832737 C249.5685,118.748767 249.861508,118.664244 250.154528,118.579087 L249.275218,118.832737 C249.691129,118.713657 250.107065,118.593299 250.523026,118.471661 L250.154528,118.579087 C250.598893,118.449945 251.043286,118.319344 251.487707,118.187283 L250.523026,118.471661 C251.059597,118.314754 251.596208,118.155718 252.132862,117.994554 C252.995621,117.735457 253.858683,117.470797 254.721855,117.200631 C254.809508,117.173196 254.897537,117.145587 254.985567,117.11792 L254.721855,117.200631 C255.150143,117.066579 255.578459,116.931173 256.006802,116.79441 L254.985567,117.11792 C255.452425,116.971194 255.919316,116.822858 256.386239,116.67291 L256.006802,116.79441 C257.024486,116.469481 258.042324,116.136899 259.060319,115.796661 C259.256814,115.730988 259.453126,115.665093 259.649444,115.598913 L259.060319,115.796661 C259.500722,115.649468 259.941153,115.500843 260.381614,115.350784 L259.649444,115.598913 C260.055078,115.462172 260.460737,115.324215 260.866422,115.185042 L260.381614,115.350784 C261.474079,114.978596 262.566726,114.597593 263.659559,114.20777 C273.34027,110.75457 283.035512,106.609301 292.747904,101.769441 L286.47537,90.68807 L324.312533,96.5191621 L312.71888,137.045993 L305.89919,124.998845 C291.877648,132.08748 277.82643,137.878756 263.751297,142.367046 L263.556248,142.429159 C263.179761,142.54889 262.803257,142.667688 262.426736,142.785554 L263.75128,142.367051 C263.05875,142.587886 262.366163,142.805566 261.673518,143.020091 C261.399889,143.104839 261.126156,143.189124 260.852414,143.272916 C260.630843,143.340738 260.409163,143.40827 260.187477,143.475477 C259.813867,143.588744 259.440076,143.701142 259.066269,143.812621 C259.014996,143.827912 258.96366,143.843205 258.912324,143.85848 C258.495865,143.982396 258.079537,144.105127 257.663188,144.226719 C257.380463,144.309288 257.097107,144.391511 256.813741,144.473205 C256.566941,144.544358 256.320613,144.614973 256.074279,144.685189 C255.844109,144.750798 255.61375,144.81611 255.383386,144.881073 C254.452537,145.143572 253.521717,145.400341 252.5908,145.651413 C252.527213,145.668563 252.463876,145.685619 252.400539,145.702648 C250.873314,146.113269 249.345618,146.508611 247.817667,146.88861 C247.72781,146.910957 247.638143,146.933204 247.548475,146.955398 C247.175375,147.047746 246.802239,147.139183 246.429088,147.229706 C246.271343,147.267974 246.113027,147.306215 245.954707,147.344292 C244.975302,147.57984 243.996362,147.808955 243.017321,148.031772 C242.914977,148.055065 242.812296,148.078364 242.709615,148.101594 C242.327652,148.188007 241.945749,148.273445 241.56383,148.357925 C241.436068,148.386185 241.308731,148.414245 241.181392,148.442198 C240.168817,148.664477 239.155787,148.880091 238.142652,149.088963 C238.105893,149.096541 238.069556,149.104023 238.03322,149.111497 C237.574256,149.205899 237.114888,149.298993 236.655499,149.390701 C236.57104,149.407562 236.486711,149.424349 236.402381,149.44109 C235.93769,149.53334 235.472791,149.624208 235.00787,149.713655 L234.88937,149.736423 C234.786697,149.756123 234.684023,149.775754 234.581348,149.795316 C234.187752,149.870304 233.793912,149.944317 233.400056,150.017311 C233.325886,150.031057 233.251563,150.044796 233.177239,150.058498 C232.714091,150.14388 232.251092,150.227824 231.788071,150.31036 C231.733142,150.320151 231.677484,150.330052 231.621824,150.339933 C231.120369,150.428952 230.619651,150.51619 230.118908,150.60178 C230.04568,150.614297 229.973022,150.626681 229.900363,150.639031 C229.539146,150.700427 229.177406,150.761051 228.815654,150.820815 C228.580621,150.859644 228.345654,150.898099 228.110683,150.936191 C227.849065,150.978602 227.587652,151.020531 227.326232,151.06201 C227.132772,151.092707 226.938783,151.123241 226.744789,151.153527 C226.302562,151.222566 225.861078,151.290206 225.419576,151.356566 C225.268106,151.379333 225.11643,151.401979 224.964752,151.424474 C224.575069,151.482268 224.185377,151.539064 223.79567,151.594863 C223.746945,151.601839 223.698271,151.608793 223.649597,151.615731 L223.155304,151.685652 C212.48399,153.183611 201.802172,153.933805 191.112339,153.933805 Z" id="形状结合"></path>
        </g>
    </g>
</svg>