<svg width="24" height="24" viewBox="0 0 24 24" fill="none" xmlns="http://www.w3.org/2000/svg">
<path d="M8.56251 8.8125C9.77063 8.8125 10.75 7.83312 10.75 6.625C10.75 5.41688 9.77063 4.4375 8.56251 4.4375C7.35439 4.4375 6.37501 5.41688 6.37501 6.625C6.37501 7.83312 7.35439 8.8125 8.56251 8.8125Z" fill="#0BA5EC"/>
<path d="M15.4375 8.8125C16.6456 8.8125 17.625 7.83312 17.625 6.625C17.625 5.41688 16.6456 4.4375 15.4375 4.4375C14.2294 4.4375 13.25 5.41688 13.25 6.625C13.25 7.83312 14.2294 8.8125 15.4375 8.8125Z" fill="#0BA5EC"/>
<path d="M15.4375 10.0625C14.7566 10.0633 14.0868 10.2354 13.4899 10.5631C12.8929 10.8908 12.3881 11.3634 12.0219 11.9375C12.5172 11.9433 12.9902 12.1449 13.3374 12.4982C13.6846 12.8515 13.8779 13.3279 13.875 13.8233C13.8721 14.3187 13.6733 14.7928 13.322 15.1421C12.9706 15.4913 12.4954 15.6874 12 15.6874C11.5046 15.6874 11.0294 15.4913 10.6781 15.1421C10.3267 14.7928 10.1279 14.3187 10.125 13.8233C10.1221 13.3279 10.3154 12.8515 10.6626 12.4982C11.0098 12.1449 11.4828 11.9433 11.9781 11.9375C11.5063 11.1962 10.8065 10.6282 9.984 10.3189C9.16151 10.0096 8.26082 9.97572 7.41744 10.2224C6.57406 10.4691 5.8336 10.983 5.30746 11.6868C4.78132 12.3906 4.49796 13.2463 4.50001 14.125V18.1875C4.50001 18.3533 4.56586 18.5122 4.68307 18.6294C4.80028 18.7466 4.95925 18.8125 5.12501 18.8125H9.50001V17.25L7.25001 15.5625C7.18435 15.5132 7.12903 15.4515 7.08721 15.3809C7.0454 15.3103 7.0179 15.2321 7.00629 15.1509C6.98285 14.9868 7.02555 14.8201 7.12501 14.6875C7.22447 14.5549 7.37253 14.4672 7.53662 14.4438C7.70072 14.4203 7.8674 14.463 8.00001 14.5625L10.3331 16.3125H13.6669L16 14.5625C16.1326 14.463 16.2993 14.4203 16.4634 14.4438C16.6275 14.4672 16.7755 14.5549 16.875 14.6875C16.9745 14.8201 17.0172 14.9868 16.9937 15.1509C16.9703 15.315 16.8826 15.463 16.75 15.5625L14.5 17.25V18.8125H18.875C19.0408 18.8125 19.1997 18.7466 19.3169 18.6294C19.4342 18.5122 19.5 18.3533 19.5 18.1875V14.125C19.4987 13.048 19.0702 12.0154 18.3087 11.2538C17.5471 10.4923 16.5145 10.0638 15.4375 10.0625Z" fill="#0BA5EC"/>
</svg>
