<svg xmlns="http://www.w3.org/2000/svg" version="1.1" viewBox="0.00 0.00 1000.00 1000.00" width="1000.00" height="1000.00">
<g stroke-width="2.00" fill="none" stroke-linecap="butt">
<path stroke="#98cfea" d="&#10;  M 374.75 366.83&#10;  L 545.22 488.64"/>
<path stroke="#9ad6ee" d="&#10;  M 545.22 488.64&#10;  L 604.58 531.02&#10;  A 1.71 1.69 -44.8 0 0 606.55 531.02&#10;  L 734.00 440.02&#10;  A 2.28 2.27 72.4 0 0 734.96 438.16&#10;  L 734.96 347.85&#10;  A 0.61 0.60 -17.8 0 0 734.00 347.36&#10;  L 606.18 438.63&#10;  A 1.05 1.05 0.0 0 1 604.98 438.63&#10;  L 551.24 400.22"/>
<path stroke="#98cfea" d="&#10;  M 551.24 400.22&#10;  L 371.75 272.04"/>
<path stroke="#95c0e0" d="&#10;  M 371.75 272.04&#10;  L 347.70 254.88&#10;  A 1.37 1.37 0.0 0 0 346.12 254.88&#10;  L 218.49 346.01&#10;  A 2.37 2.37 0.0 0 0 217.51 347.93&#10;  L 217.51 438.33&#10;  A 0.60 0.59 72.2 0 0 218.45 438.82&#10;  L 346.52 347.38&#10;  A 1.00 0.98 -44.7 0 1 347.67 347.38&#10;  L 374.75 366.83"/>
<path stroke="#2d8fcb" d="&#10;  M 371.75 272.04&#10;  Q 371.29 282.91 370.05 318.08&#10;  Q 369.16 343.11 374.75 366.83"/>
<path stroke="#33a6d8" d="&#10;  M 551.24 400.22&#10;  C 544.11 407.42 541.75 415.54 541.23 424.69&#10;  C 540.03 445.95 542.79 467.27 545.22 488.64"/>
<path stroke="#b9d895" d="&#10;  M 715.52 329.01&#10;  A 0.84 0.84 0.0 0 0 715.50 327.62&#10;  L 605.97 254.62&#10;  A 0.84 0.84 0.0 0 0 605.03 254.62&#10;  L 495.53 327.64&#10;  A 0.84 0.84 0.0 0 0 495.51 329.03&#10;  L 605.05 407.19&#10;  A 0.84 0.84 0.0 0 0 606.03 407.19&#10;  L 715.52 329.01"/>
<path stroke="#b9d895" d="&#10;  M 236.87 457.04&#10;  A 0.81 0.81 0.0 0 0 236.89 458.37&#10;  L 346.58 531.49&#10;  A 0.81 0.81 0.0 0 0 347.48 531.49&#10;  L 457.15 458.34&#10;  A 0.81 0.81 0.0 0 0 457.17 457.01&#10;  L 347.47 378.74&#10;  A 0.81 0.81 0.0 0 0 346.53 378.74&#10;  L 236.87 457.04"/>
<path stroke="#9b9a9a" d="&#10;  M 517.98 615.14&#10;  L 501.56 647.23&#10;  A 1.04 1.04 0.0 0 1 500.64 647.79&#10;  Q 497.42 647.75 494.37 647.71&#10;  C 492.75 647.68 491.72 646.81 490.50 645.67&#10;  A 0.64 0.64 0.0 0 0 489.42 646.14&#10;  L 489.42 657.83&#10;  A 0.54 0.53 -0.0 0 0 489.96 658.36&#10;  L 513.15 658.36&#10;  A 1.36 1.36 0.0 0 0 514.36 657.62&#10;  L 535.98 615.35&#10;  A 1.07 1.06 -76.0 0 1 536.92 614.78&#10;  L 550.21 614.78&#10;  A 0.43 0.42 0.0 0 1 550.64 615.20&#10;  L 550.64 659.61&#10;  A 0.30 0.30 0.0 0 0 551.10 659.86&#10;  Q 553.55 658.27 554.75 658.26&#10;  Q 557.65 658.21 596.81 658.21&#10;  A 0.55 0.55 0.0 0 0 597.36 657.66&#10;  L 597.36 646.19&#10;  A 0.59 0.59 0.0 0 0 596.36 645.77&#10;  Q 594.38 647.70 591.76 647.73&#10;  Q 585.91 647.79 566.96 647.75&#10;  A 0.67 0.66 0.0 0 1 566.29 647.09&#10;  L 566.29 615.40&#10;  A 0.64 0.64 0.0 0 1 566.93 614.76&#10;  Q 572.04 614.80 589.88 614.80&#10;  C 593.26 614.80 594.91 614.38 596.67 616.74&#10;  A 0.39 0.39 0.0 0 0 597.37 616.51&#10;  L 597.37 604.85&#10;  A 0.54 0.53 -0.0 0 0 596.83 604.32&#10;  L 542.51 604.32&#10;  A 0.44 0.44 0.0 0 1 542.12 603.68&#10;  L 553.07 582.26&#10;  A 1.82 1.81 -76.2 0 1 554.68 581.28&#10;  Q 574.22 581.39 590.01 581.25&#10;  Q 593.06 581.23 594.64 583.19&#10;  A 0.34 0.34 0.0 0 0 595.25 582.98&#10;  L 595.25 571.45&#10;  A 0.56 0.56 0.0 0 0 594.69 570.89&#10;  Q 583.72 570.88 497.99 570.88&#10;  C 495.49 570.88 494.47 570.13 492.58 568.76&#10;  A 0.45 0.45 0.0 0 0 491.87 569.12&#10;  L 491.87 580.80&#10;  A 0.51 0.51 0.0 0 0 492.38 581.31&#10;  L 534.53 581.31&#10;  A 0.49 0.49 0.0 0 1 534.97 582.02&#10;  L 524.00 603.47&#10;  A 1.59 1.58 13.5 0 1 522.59 604.33&#10;  Q 503.61 604.30 495.75 604.36&#10;  Q 492.46 604.38 490.38 602.42&#10;  A 0.46 0.46 0.0 0 0 489.60 602.76&#10;  L 489.60 614.19&#10;  A 0.58 0.58 0.0 0 0 490.18 614.77&#10;  L 517.75 614.77&#10;  A 0.26 0.26 0.0 0 1 517.98 615.14"/>
<path stroke="#9b9a9a" d="&#10;  M 732.43 619.19&#10;  L 732.43 571.86&#10;  A 0.37 0.36 90.0 0 0 732.07 571.49&#10;  Q 691.77 571.56 672.50 571.51&#10;  Q 668.71 571.50 666.51 569.33&#10;  A 0.43 0.43 0.0 0 0 665.78 569.63&#10;  L 665.78 657.77&#10;  A 0.43 0.43 0.0 0 0 666.21 658.20&#10;  Q 676.87 658.21 686.50 658.22&#10;  Q 688.77 658.23 690.46 659.86&#10;  A 0.27 0.27 0.0 0 0 690.92 659.66&#10;  L 690.92 648.35&#10;  A 0.58 0.58 0.0 0 0 690.34 647.77&#10;  L 682.32 647.77&#10;  A 0.90 0.90 0.0 0 1 681.42 646.87&#10;  L 681.42 618.24&#10;  A 1.34 1.34 0.0 0 1 682.97 616.92&#10;  Q 684.33 617.13 685.28 618.33&#10;  Q 695.46 631.22 717.09 658.95&#10;  A 1.63 1.63 0.0 0 0 718.37 659.57&#10;  L 734.26 659.57&#10;  A 0.38 0.37 -19.5 0 0 734.56 658.96&#10;  L 721.77 643.56&#10;  A 0.80 0.80 0.0 0 1 721.70 642.63&#10;  L 732.02 625.80&#10;  A 0.26 0.26 0.0 0 0 731.80 625.41&#10;  L 718.95 625.41&#10;  A 2.43 2.42 16.8 0 0 716.93 626.49&#10;  L 713.27 631.98&#10;  A 0.46 0.46 0.0 0 1 712.53 632.02&#10;  L 700.70 617.79&#10;  A 0.42 0.42 0.0 0 1 701.02 617.11&#10;  Q 719.37 617.06 728.39 617.12&#10;  Q 730.00 617.13 731.93 619.38&#10;  A 0.29 0.28 -65.4 0 0 732.43 619.19"/>
<path stroke="#9b9a9a" d="&#10;  M 258.93 623.04&#10;  L 244.70 623.04&#10;  A 0.45 0.44 -82.0 0 1 244.28 622.47&#10;  L 245.90 616.75&#10;  A 0.83 0.83 0.0 0 1 246.70 616.14&#10;  L 262.72 616.14&#10;  A 0.81 0.77 61.5 0 1 263.18 616.29&#10;  L 265.74 618.12&#10;  A 0.23 0.23 0.0 0 0 266.10 617.93&#10;  L 266.10 606.36&#10;  A 0.45 0.45 0.0 0 0 265.65 605.91&#10;  L 249.97 605.91&#10;  A 0.53 0.52 7.6 0 1 249.46 605.25&#10;  L 253.52 590.94&#10;  A 0.93 0.92 -82.1 0 1 254.41 590.26&#10;  L 262.12 590.26&#10;  A 1.56 1.55 -26.8 0 1 263.04 590.56&#10;  L 265.36 592.21&#10;  A 0.23 0.23 0.0 0 0 265.73 592.02&#10;  L 265.73 580.50&#10;  A 0.70 0.70 0.0 0 0 265.03 579.80&#10;  L 238.75 579.80&#10;  A 0.56 0.56 0.0 0 1 238.25 578.98&#10;  L 242.61 570.46&#10;  A 0.52 0.52 0.0 0 0 242.15 569.71&#10;  L 225.74 569.71&#10;  A 0.41 0.41 0.0 0 0 225.43 570.38&#10;  L 226.69 571.90&#10;  A 1.33 1.32 38.8 0 1 226.85 573.34&#10;  L 218.54 589.58&#10;  A 0.46 0.45 -76.6 0 0 218.94 590.24&#10;  L 237.87 590.24&#10;  A 0.39 0.39 0.0 0 1 238.25 590.74&#10;  L 234.11 605.36&#10;  A 0.75 0.75 0.0 0 1 233.39 605.90&#10;  L 222.10 605.90&#10;  A 1.38 1.33 -26.3 0 1 221.31 605.65&#10;  L 218.31 603.51&#10;  A 0.48 0.48 0.0 0 0 217.55 603.90&#10;  L 217.55 615.72&#10;  A 0.44 0.44 0.0 0 0 217.99 616.16&#10;  L 230.37 616.16&#10;  A 0.53 0.53 0.0 0 1 230.88 616.83&#10;  L 219.32 657.62&#10;  A 0.47 0.47 0.0 0 0 219.77 658.22&#10;  L 233.18 658.22&#10;  A 1.00 0.99 7.6 0 0 234.14 657.49&#10;  L 242.48 628.06&#10;  A 0.40 0.40 0.0 0 1 243.24 628.05&#10;  L 252.54 657.70&#10;  A 0.74 0.73 -8.6 0 0 253.24 658.21&#10;  L 266.95 658.21&#10;  A 0.40 0.40 0.0 0 0 267.33 657.69&#10;  L 257.69 626.94&#10;  A 1.71 1.70 -42.2 0 1 257.75 625.78&#10;  Q 258.24 624.68 259.22 623.76&#10;  A 0.42 0.41 23.4 0 0 258.93 623.04"/>
<path stroke="#9b9a9a" d="&#10;  M 330.11 582.04&#10;  A 0.19 0.19 0.0 0 0 330.42 581.90&#10;  L 330.42 570.13&#10;  A 0.36 0.36 0.0 0 0 330.06 569.77&#10;  L 266.78 569.77&#10;  A 0.29 0.28 72.2 0 0 266.55 570.22&#10;  L 268.19 572.51&#10;  A 0.81 0.77 28.5 0 1 268.34 572.97&#10;  L 268.34 657.57&#10;  A 0.64 0.64 0.0 0 0 268.98 658.21&#10;  Q 291.13 658.20 325.26 658.23&#10;  Q 327.41 658.23 330.05 659.80&#10;  A 0.24 0.24 0.0 0 0 330.41 659.60&#10;  L 330.41 648.47&#10;  A 0.72 0.71 0.0 0 0 329.69 647.76&#10;  L 284.89 647.76&#10;  A 0.71 0.71 0.0 0 1 284.18 647.05&#10;  L 284.18 633.28&#10;  A 0.54 0.54 0.0 0 1 284.72 632.74&#10;  L 328.88 632.74&#10;  A 0.33 0.33 0.0 0 0 329.21 632.41&#10;  L 329.21 595.68&#10;  A 0.57 0.57 0.0 0 0 328.64 595.11&#10;  L 284.95 595.11&#10;  A 0.80 0.79 -0.0 0 1 284.15 594.32&#10;  L 284.15 580.89&#10;  A 0.69 0.69 0.0 0 1 284.84 580.20&#10;  Q 315.83 580.21 325.76 580.23&#10;  Q 328.10 580.23 330.11 582.04"/>
<path stroke="#9b9a9a" d="&#10;  M 457.31 570.67&#10;  A 0.36 0.36 0.0 0 0 456.95 570.31&#10;  L 357.11 570.31&#10;  A 0.36 0.36 0.0 0 0 356.80 570.85&#10;  L 358.11 573.12&#10;  A 0.36 0.36 0.0 0 1 358.16 573.30&#10;  L 358.16 596.36&#10;  A 0.36 0.36 0.0 0 0 358.52 596.72&#10;  L 456.95 596.72&#10;  A 0.36 0.36 0.0 0 0 457.31 596.36&#10;  L 457.31 570.67"/>
<path stroke="#9b9a9a" d="&#10;  M 652.35 609.96&#10;  L 658.46 603.11&#10;  A 2.65 2.65 0.0 0 0 659.12 601.36&#10;  L 659.12 571.98&#10;  A 0.47 0.47 0.0 0 0 658.65 571.51&#10;  L 622.30 571.51&#10;  A 0.39 0.38 -21.9 0 0 622.02 572.16&#10;  Q 623.63 573.83 623.63 576.37&#10;  Q 623.60 616.97 623.62 658.50&#10;  A 0.45 0.45 0.0 0 0 624.07 658.95&#10;  L 638.66 658.95&#10;  A 0.64 0.64 0.0 0 0 639.30 658.31&#10;  L 639.30 581.99&#10;  A 0.26 0.25 -90.0 0 1 639.55 581.73&#10;  L 647.34 581.73&#10;  A 0.23 0.23 0.0 0 1 647.57 581.96&#10;  Q 647.58 612.23 647.56 638.72&#10;  C 647.55 641.32 646.84 642.39 645.13 644.06&#10;  A 0.70 0.69 22.7 0 0 645.62 645.25&#10;  L 658.75 645.25&#10;  A 0.39 0.38 -90.0 0 0 659.13 644.86&#10;  L 659.13 611.50&#10;  A 0.64 0.64 0.0 0 0 658.49 610.86&#10;  L 652.75 610.86&#10;  A 0.54 0.54 0.0 0 1 652.35 609.96"/>
<path stroke="#9b9a9a" d="&#10;  M 465.22 607.13&#10;  L 465.27 600.48&#10;  A 0.64 0.64 0.0 0 0 464.63 599.83&#10;  L 356.63 599.83&#10;  A 1.38 1.25 -31.1 0 1 356.12 599.73&#10;  L 352.86 598.41&#10;  A 0.44 0.44 0.0 0 0 352.25 598.82&#10;  L 352.25 605.53&#10;  A 0.77 0.76 0.4 0 0 353.01 606.29&#10;  Q 444.90 606.40 459.50 606.24&#10;  C 461.95 606.21 462.75 606.23 463.94 607.07&#10;  Q 464.62 607.55 464.69 607.57&#10;  A 0.45 0.45 0.0 0 0 465.22 607.13"/>
<path stroke="#9b9a9a" d="&#10;  M 462.72 646.40&#10;  L 462.72 639.32&#10;  A 0.60 0.60 0.0 0 0 462.12 638.72&#10;  L 417.10 638.72&#10;  A 1.20 1.20 0.0 0 1 415.90 637.52&#10;  L 415.90 636.79&#10;  A 1.56 1.55 -90.0 0 1 417.45 635.23&#10;  L 456.51 635.23&#10;  A 0.41 0.41 0.0 0 0 456.92 634.82&#10;  L 456.92 609.55&#10;  A 0.79 0.79 0.0 0 0 456.13 608.76&#10;  L 359.34 608.76&#10;  A 0.37 0.37 0.0 0 0 359.03 609.34&#10;  Q 360.08 610.87 360.08 612.75&#10;  Q 360.08 612.95 360.10 634.86&#10;  A 0.37 0.37 0.0 0 0 360.47 635.23&#10;  L 399.54 635.23&#10;  A 1.02 1.02 0.0 0 1 400.56 636.25&#10;  L 400.56 637.71&#10;  A 1.00 1.00 0.0 0 1 399.56 638.71&#10;  Q 390.07 638.73 361.63 638.70&#10;  C 359.34 638.70 358.19 638.35 356.30 637.34&#10;  A 0.42 0.42 0.0 0 0 355.68 637.71&#10;  L 355.68 644.88&#10;  A 0.58 0.58 0.0 0 0 356.26 645.46&#10;  L 399.95 645.46&#10;  A 0.51 0.51 0.0 0 1 400.46 645.97&#10;  L 400.46 651.45&#10;  A 0.48 0.48 0.0 0 1 399.98 651.93&#10;  Q 371.91 651.84 358.50 651.92&#10;  Q 355.62 651.93 353.11 650.30&#10;  A 0.55 0.54 -73.5 0 0 352.27 650.76&#10;  L 352.27 658.36&#10;  A 0.59 0.59 0.0 0 0 352.86 658.95&#10;  L 461.97 658.95&#10;  A 1.29 1.27 60.3 0 1 462.64 659.14&#10;  L 464.61 660.35&#10;  A 0.43 0.42 15.9 0 0 465.26 659.99&#10;  L 465.26 652.49&#10;  A 0.60 0.60 0.0 0 0 464.66 651.89&#10;  L 417.26 651.89&#10;  A 1.12 1.12 0.0 0 1 416.14 650.77&#10;  L 416.14 646.44&#10;  A 0.98 0.98 0.0 0 1 417.12 645.46&#10;  L 458.03 645.45&#10;  A 8.44 8.29 52.2 0 1 460.39 645.77&#10;  Q 461.39 646.06 462.00 646.69&#10;  A 0.42 0.42 0.0 0 0 462.72 646.40"/>
<path stroke="#9b9a9a" d="&#10;  M 244.17 689.74&#10;  A 0.19 0.19 0.0 0 1 244.54 689.73&#10;  L 249.30 715.80&#10;  A 0.79 0.79 0.0 0 0 250.08 716.45&#10;  L 252.87 716.45&#10;  A 0.55 0.55 0.0 0 0 253.41 715.81&#10;  L 246.89 680.16&#10;  A 1.04 1.04 0.0 0 0 245.87 679.31&#10;  L 240.28 679.31&#10;  A 0.66 0.66 0.0 0 0 239.65 680.16&#10;  Q 240.00 681.26 239.71 682.74&#10;  Q 238.36 689.86 235.79 703.86&#10;  Q 235.76 704.00 235.52 704.42&#10;  A 0.14 0.13 -34.9 0 1 235.27 704.38&#10;  L 230.81 679.99&#10;  A 0.86 0.85 84.7 0 0 229.97 679.29&#10;  L 224.03 679.29&#10;  A 0.63 0.63 0.0 0 0 223.43 680.13&#10;  Q 223.80 681.17 223.51 682.76&#10;  Q 220.47 699.35 217.35 716.02&#10;  A 0.35 0.35 0.0 0 0 217.69 716.44&#10;  L 222.77 716.44&#10;  A 0.58 0.57 -84.5 0 0 223.33 715.97&#10;  L 228.00 689.59&#10;  A 0.24 0.23 -45.6 0 1 228.46 689.58&#10;  L 233.31 716.08&#10;  A 0.45 0.44 -4.5 0 0 233.75 716.45&#10;  L 238.72 716.45&#10;  A 0.86 0.85 -84.7 0 0 239.56 715.75&#10;  L 244.17 689.74"/>
<path stroke="#9b9a9a" d="&#10;  M 292.4881 679.5727&#10;  A 0.27 0.27 0.0 0 0 292.2176 679.3031&#10;  L 261.3977 679.3569&#10;  A 0.27 0.27 0.0 0 0 261.1281 679.6274&#10;  L 261.1919 716.1673&#10;  A 0.27 0.27 0.0 0 0 261.4624 716.4369&#10;  L 292.2823 716.3831&#10;  A 0.27 0.27 0.0 0 0 292.5519 716.1126&#10;  L 292.4881 679.5727"/>
<path stroke="#9b9a9a" d="&#10;  M 326.25 689.72&#10;  A 0.19 0.19 0.0 0 1 326.62 689.71&#10;  L 331.41 715.76&#10;  A 0.79 0.79 0.0 0 0 332.19 716.41&#10;  L 334.98 716.41&#10;  A 0.55 0.55 0.0 0 0 335.51 715.77&#10;  L 328.96 680.14&#10;  A 1.04 1.04 0.0 0 0 327.94 679.29&#10;  L 322.35 679.30&#10;  A 0.66 0.66 0.0 0 0 321.72 680.15&#10;  Q 322.07 681.25 321.79 682.73&#10;  Q 320.44 689.84 317.89 703.84&#10;  Q 317.86 703.98 317.62 704.40&#10;  A 0.14 0.13 -34.9 0 1 317.37 704.36&#10;  L 312.89 679.99&#10;  A 0.86 0.85 84.7 0 0 312.05 679.29&#10;  L 306.11 679.29&#10;  A 0.63 0.63 0.0 0 0 305.51 680.13&#10;  Q 305.88 681.17 305.59 682.76&#10;  Q 302.57 699.35 299.47 716.02&#10;  A 0.35 0.35 0.0 0 0 299.81 716.44&#10;  L 304.89 716.43&#10;  A 0.58 0.57 -84.5 0 0 305.45 715.96&#10;  L 310.09 689.59&#10;  A 0.24 0.23 -45.7 0 1 310.55 689.57&#10;  L 315.42 716.06&#10;  A 0.45 0.44 -4.6 0 0 315.86 716.43&#10;  L 320.83 716.42&#10;  A 0.86 0.85 -84.8 0 0 321.67 715.72&#10;  L 326.25 689.72"/>
<path stroke="#9b9a9a" d="&#10;  M 372.68 684.90&#10;  L 372.68 679.92&#10;  A 0.58 0.58 0.0 0 0 372.10 679.34&#10;  L 343.14 679.34&#10;  A 0.48 0.47 -7.8 0 0 342.68 679.94&#10;  C 342.93 680.85 343.30 681.40 343.30 682.59&#10;  Q 343.33 706.41 343.30 714.33&#10;  A 0.51 0.51 0.0 0 0 343.81 714.85&#10;  L 369.75 714.85&#10;  A 3.09 3.05 55.6 0 1 370.89 715.07&#10;  L 372.24 715.62&#10;  A 0.32 0.32 0.0 0 0 372.68 715.33&#10;  L 372.68 709.67&#10;  A 0.45 0.44 -0.0 0 0 372.23 709.23&#10;  L 349.71 709.23&#10;  A 0.63 0.62 -90.0 0 1 349.09 708.60&#10;  L 349.09 700.38&#10;  A 0.65 0.64 -90.0 0 1 349.73 699.73&#10;  L 369.05 699.73&#10;  A 1.63 1.47 53.1 0 1 369.62 699.84&#10;  L 371.30 700.53&#10;  A 0.32 0.32 0.0 0 0 371.74 700.23&#10;  L 371.74 694.85&#10;  A 0.53 0.53 0.0 0 0 371.21 694.32&#10;  L 349.67 694.32&#10;  A 0.56 0.56 0.0 0 1 349.11 693.76&#10;  L 349.11 685.19&#10;  A 0.56 0.56 0.0 0 1 349.67 684.63&#10;  Q 354.31 684.60 370.22 684.63&#10;  C 370.86 684.63 371.42 685.16 371.91 685.39&#10;  A 0.54 0.54 0.0 0 0 372.68 684.90"/>
<path stroke="#9b9a9a" d="&#10;  M 379.96 680.04&#10;  C 380.21 680.95 380.42 681.65 380.42 682.81&#10;  Q 380.41 700.19 380.42 715.74&#10;  A 0.58 0.58 0.0 0 0 381.00 716.32&#10;  L 385.72 716.32&#10;  A 0.60 0.60 0.0 0 0 386.32 715.72&#10;  L 386.32 685.79&#10;  A 0.79 0.79 0.0 0 1 387.10 685.01&#10;  L 403.13 685.01&#10;  A 0.69 0.69 0.0 0 1 403.82 685.69&#10;  L 403.82 715.71&#10;  A 0.60 0.60 0.0 0 0 404.42 716.31&#10;  L 409.12 716.31&#10;  A 0.60 0.59 -0.0 0 0 409.72 715.72&#10;  L 409.71 679.82&#10;  A 0.47 0.46 -0.0 0 0 409.24 679.36&#10;  L 380.48 679.36&#10;  A 0.54 0.53 -7.8 0 0 379.96 680.04"/>
<path stroke="#9b9a9a" d="&#10;  M 483.23 685.26&#10;  L 483.16 679.83&#10;  A 0.50 0.50 0.0 0 0 482.66 679.34&#10;  L 454.20 679.34&#10;  A 0.37 0.37 0.0 0 0 453.83 679.71&#10;  L 453.83 698.27&#10;  A 0.65 0.65 0.0 0 0 454.48 698.92&#10;  L 476.75 698.92&#10;  A 0.53 0.53 0.0 0 1 477.28 699.45&#10;  L 477.28 708.57&#10;  A 0.69 0.69 0.0 0 1 476.60 709.26&#10;  Q 463.71 709.36 456.23 709.20&#10;  C 455.55 709.19 454.74 708.61 454.28 708.38&#10;  A 0.32 0.32 0.0 0 0 453.82 708.67&#10;  L 453.82 714.52&#10;  A 0.57 0.57 0.0 0 0 454.39 715.09&#10;  Q 465.67 714.97 480.57 715.05&#10;  C 481.32 715.06 482.12 715.43 482.66 715.61&#10;  A 0.38 0.37 -81.0 0 0 483.15 715.25&#10;  L 483.15 693.98&#10;  A 0.40 0.39 -0.0 0 0 482.75 693.59&#10;  L 460.39 693.59&#10;  A 0.60 0.59 -90.0 0 1 459.80 692.99&#10;  L 459.80 685.41&#10;  A 0.59 0.58 90.0 0 1 460.38 684.82&#10;  Q 476.02 684.78 480.56 684.81&#10;  Q 481.18 684.81 481.65 685.03&#10;  Q 482.69 685.51 482.71 685.52&#10;  A 0.32 0.32 0.0 0 0 483.23 685.26"/>
<path stroke="#9b9a9a" d="&#10;  M 519.2681 679.5648&#10;  A 0.27 0.27 0.0 0 0 518.9976 679.2953&#10;  L 513.5776 679.3048&#10;  A 0.27 0.27 0.0 0 0 513.3081 679.5752&#10;  L 513.3719 716.1152&#10;  A 0.27 0.27 0.0 0 0 513.6424 716.3847&#10;  L 519.0624 716.3752&#10;  A 0.27 0.27 0.0 0 0 519.3319 716.1048&#10;  L 519.2681 679.5648"/>
<path stroke="#9b9a9a" d="&#10;  M 531.09 680.00&#10;  C 531.34 680.92 531.55 681.62 531.55 682.79&#10;  Q 531.53 700.26 531.53 715.91&#10;  A 0.58 0.58 0.0 0 0 532.12 716.49&#10;  L 536.86 716.49&#10;  A 0.60 0.60 0.0 0 0 537.46 715.89&#10;  L 537.48 685.79&#10;  A 0.79 0.79 0.0 0 1 538.27 685.00&#10;  L 554.38 685.01&#10;  A 0.69 0.69 0.0 0 1 555.07 685.70&#10;  L 555.06 715.89&#10;  A 0.60 0.60 0.0 0 0 555.66 716.49&#10;  L 560.39 716.49&#10;  A 0.60 0.59 0.0 0 0 560.99 715.90&#10;  L 561.01 679.79&#10;  A 0.47 0.46 0.0 0 0 560.54 679.33&#10;  L 531.61 679.32&#10;  A 0.54 0.54 0.0 0 0 531.09 680.00"/>
<path stroke="#9b9a9a" d="&#10;  M 597.56 695.29&#10;  A 0.40 0.39 90.0 0 0 597.17 694.89&#10;  L 575.69 694.89&#10;  A 0.52 0.52 0.0 0 1 575.17 694.37&#10;  L 575.17 685.43&#10;  A 0.63 0.62 90.0 0 1 575.79 684.80&#10;  Q 577.15 684.81 595.26 684.80&#10;  Q 596.78 684.80 598.13 685.75&#10;  A 0.27 0.27 0.0 0 0 598.56 685.53&#10;  L 598.56 679.96&#10;  A 0.64 0.63 -90.0 0 0 597.93 679.32&#10;  L 569.13 679.32&#10;  A 0.52 0.52 0.0 0 0 568.63 679.98&#10;  C 568.88 680.91 569.19 681.57 569.19 682.75&#10;  Q 569.12 699.96 569.21 715.76&#10;  A 0.64 0.64 0.0 0 0 569.85 716.40&#10;  L 574.51 716.40&#10;  A 0.64 0.63 90.0 0 0 575.14 715.76&#10;  L 575.14 701.37&#10;  A 0.52 0.52 0.0 0 1 575.64 700.85&#10;  Q 590.16 700.30 597.27 701.18&#10;  A 0.26 0.26 0.0 0 0 597.56 700.92&#10;  L 597.56 695.29"/>
<path stroke="#9b9a9a" d="&#10;  M 612.2181 679.5848&#10;  A 0.26 0.26 0.0 0 0 611.9577 679.3252&#10;  L 606.4577 679.3348&#10;  A 0.26 0.26 0.0 0 0 606.1981 679.5953&#10;  L 606.2619 716.1152&#10;  A 0.26 0.26 0.0 0 0 606.5223 716.3748&#10;  L 612.0223 716.3652&#10;  A 0.26 0.26 0.0 0 0 612.2819 716.1047&#10;  L 612.2181 679.5848"/>
<path stroke="#9b9a9a" d="&#10;  M 619.43 680.02&#10;  C 619.68 680.94 619.89 681.64 619.89 682.80&#10;  Q 619.88 700.25 619.89 715.87&#10;  A 0.58 0.58 0.0 0 0 620.47 716.45&#10;  L 625.21 716.45&#10;  A 0.60 0.60 0.0 0 0 625.81 715.85&#10;  L 625.81 685.80&#10;  A 0.79 0.79 0.0 0 1 626.60 685.01&#10;  L 642.69 685.01&#10;  A 0.69 0.69 0.0 0 1 643.38 685.70&#10;  L 643.38 715.84&#10;  A 0.60 0.60 0.0 0 0 643.98 716.44&#10;  L 648.70 716.44&#10;  A 0.60 0.59 0.0 0 0 649.30 715.85&#10;  L 649.30 679.80&#10;  A 0.47 0.46 0.0 0 0 648.83 679.34&#10;  L 619.95 679.34&#10;  A 0.54 0.54 0.0 0 0 619.43 680.02"/>
<path stroke="#9b9a9a" d="&#10;  M 663.1862 679.5697&#10;  A 0.26 0.26 0.0 0 0 662.9253 679.3106&#10;  L 657.4653 679.3296&#10;  A 0.26 0.26 0.0 0 0 657.2062 679.5905&#10;  L 657.3338 716.1303&#10;  A 0.26 0.26 0.0 0 0 657.5947 716.3894&#10;  L 663.0547 716.3704&#10;  A 0.26 0.26 0.0 0 0 663.3138 716.1095&#10;  L 663.1862 679.5697"/>
<path stroke="#9b9a9a" d="&#10;  M 723.82 715.77&#10;  Q 723.91 708.27 723.82 700.25&#10;  Q 723.79 697.89 724.76 696.28&#10;  Q 732.12 683.95 734.47 680.36&#10;  A 0.68 0.68 0.0 0 0 733.90 679.30&#10;  L 729.94 679.30&#10;  A 2.11 2.10 -74.0 0 0 728.15 680.30&#10;  L 721.64 690.91&#10;  A 0.25 0.25 0.0 0 1 721.21 690.90&#10;  L 714.76 679.74&#10;  A 0.85 0.84 -14.3 0 0 714.02 679.31&#10;  L 706.82 679.31&#10;  A 0.40 0.40 0.0 0 0 706.63 680.06&#10;  Q 707.94 680.81 708.58 681.97&#10;  Q 715.60 694.66 716.97 697.12&#10;  Q 717.98 698.93 717.97 702.49&#10;  Q 717.96 705.86 717.93 715.79&#10;  A 0.64 0.63 0.0 0 0 718.57 716.42&#10;  L 723.16 716.42&#10;  A 0.66 0.66 0.0 0 0 723.82 715.77"/>
<path stroke="#9b9a9a" d="&#10;  M 669.81 679.96&#10;  L 669.81 685.59&#10;  A 0.63 0.62 0.0 0 0 670.44 686.21&#10;  L 680.97 686.21&#10;  A 0.50 0.50 0.0 0 1 681.47 686.71&#10;  L 681.47 715.81&#10;  A 0.64 0.63 -90.0 0 0 682.10 716.45&#10;  L 686.75 716.45&#10;  A 0.59 0.59 0.0 0 0 687.34 715.86&#10;  L 687.34 686.79&#10;  A 0.48 0.47 87.4 0 1 687.77 686.31&#10;  Q 694.77 685.61 699.12 686.86&#10;  A 0.17 0.17 0.0 0 0 699.34 686.70&#10;  L 699.34 680.98&#10;  A 0.35 0.35 0.0 0 0 698.99 680.63&#10;  Q 682.40 680.69 672.95 680.65&#10;  C 671.91 680.65 671.23 680.20 670.18 679.72&#10;  A 0.26 0.26 0.0 0 0 669.81 679.96"/>
<path stroke="#9b9a9a" d="&#10;  M 416.68 679.97&#10;  L 416.68 685.59&#10;  A 0.63 0.62 0.0 0 0 417.31 686.20&#10;  L 427.81 686.21&#10;  A 0.50 0.50 0.0 0 1 428.31 686.71&#10;  L 428.30 715.73&#10;  A 0.64 0.63 -90.0 0 0 428.92 716.37&#10;  L 433.56 716.37&#10;  A 0.59 0.59 0.0 0 0 434.15 715.78&#10;  L 434.16 686.79&#10;  A 0.48 0.47 87.4 0 1 434.59 686.31&#10;  Q 441.57 685.62 445.91 686.86&#10;  A 0.17 0.17 0.0 0 0 446.13 686.70&#10;  L 446.13 681.00&#10;  A 0.35 0.35 0.0 0 0 445.78 680.65&#10;  Q 429.24 680.70 419.81 680.66&#10;  C 418.78 680.66 418.10 680.21 417.05 679.73&#10;  A 0.26 0.26 0.0 0 0 416.68 679.97"/>
<path stroke="#9b9a9a" d="&#10;  M 716.8149 582.4391&#10;  A 0.66 0.66 0.0 0 0 716.1538 581.7803&#10;  L 682.0938 581.8397&#10;  A 0.66 0.66 0.0 0 0 681.4350 582.5009&#10;  L 681.4451 588.2809&#10;  A 0.66 0.66 0.0 0 0 682.1062 588.9397&#10;  L 716.1662 588.8803&#10;  A 0.66 0.66 0.0 0 0 716.8250 588.2191&#10;  L 716.8149 582.4391"/>
<path stroke="#9b9a9a" d="&#10;  M 716.82 599.72&#10;  A 0.69 0.69 0.0 0 0 716.13 599.03&#10;  L 682.11 599.03&#10;  A 0.69 0.69 0.0 0 0 681.42 599.72&#10;  L 681.42 606.14&#10;  A 0.69 0.69 0.0 0 0 682.11 606.83&#10;  L 716.13 606.83&#10;  A 0.69 0.69 0.0 0 0 716.82 606.14&#10;  L 716.82 599.72"/>
<path stroke="#9b9a9a" d="&#10;  M 313.5763 606.1343&#10;  A 0.70 0.70 0.0 0 0 312.8751 605.4356&#10;  L 284.8552 605.4845&#10;  A 0.70 0.70 0.0 0 0 284.1564 606.1857&#10;  L 284.1837 621.8057&#10;  A 0.70 0.70 0.0 0 0 284.8849 622.5044&#10;  L 312.9048 622.4555&#10;  A 0.70 0.70 0.0 0 0 313.6036 621.7543&#10;  L 313.5763 606.1343"/>
<path stroke="#9b9a9a" d="&#10;  M 441.74 578.32&#10;  A 0.96 0.96 0.0 0 0 440.78 577.36&#10;  L 374.54 577.36&#10;  A 0.96 0.96 0.0 0 0 373.58 578.32&#10;  L 373.58 580.20&#10;  A 0.96 0.96 0.0 0 0 374.54 581.16&#10;  L 440.78 581.16&#10;  A 0.96 0.96 0.0 0 0 441.74 580.20&#10;  L 441.74 578.32"/>
<path stroke="#9b9a9a" d="&#10;  M 441.71 587.07&#10;  A 0.91 0.91 0.0 0 0 440.80 586.16&#10;  L 374.58 586.16&#10;  A 0.91 0.91 0.0 0 0 373.67 587.07&#10;  L 373.67 588.97&#10;  A 0.91 0.91 0.0 0 0 374.58 589.88&#10;  L 440.80 589.88&#10;  A 0.91 0.91 0.0 0 0 441.71 588.97&#10;  L 441.71 587.07"/>
<path stroke="#9b9a9a" d="&#10;  M 400.50 616.34&#10;  A 0.77 0.77 0.0 0 0 399.73 615.57&#10;  L 374.77 615.57&#10;  A 0.77 0.77 0.0 0 0 374.00 616.34&#10;  L 374.00 618.66&#10;  A 0.77 0.77 0.0 0 0 374.77 619.43&#10;  L 399.73 619.43&#10;  A 0.77 0.77 0.0 0 0 400.50 618.66&#10;  L 400.50 616.34"/>
<path stroke="#9b9a9a" d="&#10;  M 442.86 616.46&#10;  A 0.90 0.90 0.0 0 0 441.96 615.56&#10;  L 417.04 615.56&#10;  A 0.90 0.90 0.0 0 0 416.14 616.46&#10;  L 416.14 618.56&#10;  A 0.90 0.90 0.0 0 0 417.04 619.46&#10;  L 441.96 619.46&#10;  A 0.90 0.90 0.0 0 0 442.86 618.56&#10;  L 442.86 616.46"/>
<path stroke="#9b9a9a" d="&#10;  M 400.4413 625.7131&#10;  A 0.90 0.90 0.0 0 0 399.5429 624.8116&#10;  L 374.8430 624.7684&#10;  A 0.90 0.90 0.0 0 0 373.9414 625.6669&#10;  L 373.9387 627.2269&#10;  A 0.90 0.90 0.0 0 0 374.8371 628.1284&#10;  L 399.5370 628.1716&#10;  A 0.90 0.90 0.0 0 0 400.4386 627.2731&#10;  L 400.4413 625.7131"/>
<path stroke="#9b9a9a" d="&#10;  M 442.8789 625.8165&#10;  A 1.07 1.07 0.0 0 0 441.8070 624.7484&#10;  L 417.0671 624.7916&#10;  A 1.07 1.07 0.0 0 0 415.9990 625.8635&#10;  L 416.0011 627.0835&#10;  A 1.07 1.07 0.0 0 0 417.0730 628.1516&#10;  L 441.8129 628.1084&#10;  A 1.07 1.07 0.0 0 0 442.8810 627.0365&#10;  L 442.8789 625.8165"/>
<path stroke="#9b9a9a" d="&#10;  M 286.51 685.56&#10;  A 0.75 0.75 0.0 0 0 285.76 684.81&#10;  L 267.96 684.81&#10;  A 0.75 0.75 0.0 0 0 267.21 685.56&#10;  L 267.21 709.82&#10;  A 0.75 0.75 0.0 0 0 267.96 710.57&#10;  L 285.76 710.57&#10;  A 0.75 0.75 0.0 0 0 286.51 709.82&#10;  L 286.51 685.56"/>
</g>
<path fill="#ffffff" d="&#10;  M 1000.00 0.00&#10;  L 1000.00 1000.00&#10;  L 0.00 1000.00&#10;  L 0.00 0.00&#10;  L 1000.00 0.00&#10;  Z&#10;  M 374.75 366.83&#10;  L 545.22 488.64&#10;  L 604.58 531.02&#10;  A 1.71 1.69 -44.8 0 0 606.55 531.02&#10;  L 734.00 440.02&#10;  A 2.28 2.27 72.4 0 0 734.96 438.16&#10;  L 734.96 347.85&#10;  A 0.61 0.60 -17.8 0 0 734.00 347.36&#10;  L 606.18 438.63&#10;  A 1.05 1.05 0.0 0 1 604.98 438.63&#10;  L 551.24 400.22&#10;  L 371.75 272.04&#10;  L 347.70 254.88&#10;  A 1.37 1.37 0.0 0 0 346.12 254.88&#10;  L 218.49 346.01&#10;  A 2.37 2.37 0.0 0 0 217.51 347.93&#10;  L 217.51 438.33&#10;  A 0.60 0.59 72.2 0 0 218.45 438.82&#10;  L 346.52 347.38&#10;  A 1.00 0.98 -44.7 0 1 347.67 347.38&#10;  L 374.75 366.83&#10;  Z&#10;  M 715.52 329.01&#10;  A 0.84 0.84 0.0 0 0 715.50 327.62&#10;  L 605.97 254.62&#10;  A 0.84 0.84 0.0 0 0 605.03 254.62&#10;  L 495.53 327.64&#10;  A 0.84 0.84 0.0 0 0 495.51 329.03&#10;  L 605.05 407.19&#10;  A 0.84 0.84 0.0 0 0 606.03 407.19&#10;  L 715.52 329.01&#10;  Z&#10;  M 236.87 457.04&#10;  A 0.81 0.81 0.0 0 0 236.89 458.37&#10;  L 346.58 531.49&#10;  A 0.81 0.81 0.0 0 0 347.48 531.49&#10;  L 457.15 458.34&#10;  A 0.81 0.81 0.0 0 0 457.17 457.01&#10;  L 347.47 378.74&#10;  A 0.81 0.81 0.0 0 0 346.53 378.74&#10;  L 236.87 457.04&#10;  Z&#10;  M 517.98 615.14&#10;  L 501.56 647.23&#10;  A 1.04 1.04 0.0 0 1 500.64 647.79&#10;  Q 497.42 647.75 494.37 647.71&#10;  C 492.75 647.68 491.72 646.81 490.50 645.67&#10;  A 0.64 0.64 0.0 0 0 489.42 646.14&#10;  L 489.42 657.83&#10;  A 0.54 0.53 -0.0 0 0 489.96 658.36&#10;  L 513.15 658.36&#10;  A 1.36 1.36 0.0 0 0 514.36 657.62&#10;  L 535.98 615.35&#10;  A 1.07 1.06 -76.0 0 1 536.92 614.78&#10;  L 550.21 614.78&#10;  A 0.43 0.42 0.0 0 1 550.64 615.20&#10;  L 550.64 659.61&#10;  A 0.30 0.30 0.0 0 0 551.10 659.86&#10;  Q 553.55 658.27 554.75 658.26&#10;  Q 557.65 658.21 596.81 658.21&#10;  A 0.55 0.55 0.0 0 0 597.36 657.66&#10;  L 597.36 646.19&#10;  A 0.59 0.59 0.0 0 0 596.36 645.77&#10;  Q 594.38 647.70 591.76 647.73&#10;  Q 585.91 647.79 566.96 647.75&#10;  A 0.67 0.66 0.0 0 1 566.29 647.09&#10;  L 566.29 615.40&#10;  A 0.64 0.64 0.0 0 1 566.93 614.76&#10;  Q 572.04 614.80 589.88 614.80&#10;  C 593.26 614.80 594.91 614.38 596.67 616.74&#10;  A 0.39 0.39 0.0 0 0 597.37 616.51&#10;  L 597.37 604.85&#10;  A 0.54 0.53 -0.0 0 0 596.83 604.32&#10;  L 542.51 604.32&#10;  A 0.44 0.44 0.0 0 1 542.12 603.68&#10;  L 553.07 582.26&#10;  A 1.82 1.81 -76.2 0 1 554.68 581.28&#10;  Q 574.22 581.39 590.01 581.25&#10;  Q 593.06 581.23 594.64 583.19&#10;  A 0.34 0.34 0.0 0 0 595.25 582.98&#10;  L 595.25 571.45&#10;  A 0.56 0.56 0.0 0 0 594.69 570.89&#10;  Q 583.72 570.88 497.99 570.88&#10;  C 495.49 570.88 494.47 570.13 492.58 568.76&#10;  A 0.45 0.45 0.0 0 0 491.87 569.12&#10;  L 491.87 580.80&#10;  A 0.51 0.51 0.0 0 0 492.38 581.31&#10;  L 534.53 581.31&#10;  A 0.49 0.49 0.0 0 1 534.97 582.02&#10;  L 524.00 603.47&#10;  A 1.59 1.58 13.5 0 1 522.59 604.33&#10;  Q 503.61 604.30 495.75 604.36&#10;  Q 492.46 604.38 490.38 602.42&#10;  A 0.46 0.46 0.0 0 0 489.60 602.76&#10;  L 489.60 614.19&#10;  A 0.58 0.58 0.0 0 0 490.18 614.77&#10;  L 517.75 614.77&#10;  A 0.26 0.26 0.0 0 1 517.98 615.14&#10;  Z&#10;  M 732.43 619.19&#10;  L 732.43 571.86&#10;  A 0.37 0.36 90.0 0 0 732.07 571.49&#10;  Q 691.77 571.56 672.50 571.51&#10;  Q 668.71 571.50 666.51 569.33&#10;  A 0.43 0.43 0.0 0 0 665.78 569.63&#10;  L 665.78 657.77&#10;  A 0.43 0.43 0.0 0 0 666.21 658.20&#10;  Q 676.87 658.21 686.50 658.22&#10;  Q 688.77 658.23 690.46 659.86&#10;  A 0.27 0.27 0.0 0 0 690.92 659.66&#10;  L 690.92 648.35&#10;  A 0.58 0.58 0.0 0 0 690.34 647.77&#10;  L 682.32 647.77&#10;  A 0.90 0.90 0.0 0 1 681.42 646.87&#10;  L 681.42 618.24&#10;  A 1.34 1.34 0.0 0 1 682.97 616.92&#10;  Q 684.33 617.13 685.28 618.33&#10;  Q 695.46 631.22 717.09 658.95&#10;  A 1.63 1.63 0.0 0 0 718.37 659.57&#10;  L 734.26 659.57&#10;  A 0.38 0.37 -19.5 0 0 734.56 658.96&#10;  L 721.77 643.56&#10;  A 0.80 0.80 0.0 0 1 721.70 642.63&#10;  L 732.02 625.80&#10;  A 0.26 0.26 0.0 0 0 731.80 625.41&#10;  L 718.95 625.41&#10;  A 2.43 2.42 16.8 0 0 716.93 626.49&#10;  L 713.27 631.98&#10;  A 0.46 0.46 0.0 0 1 712.53 632.02&#10;  L 700.70 617.79&#10;  A 0.42 0.42 0.0 0 1 701.02 617.11&#10;  Q 719.37 617.06 728.39 617.12&#10;  Q 730.00 617.13 731.93 619.38&#10;  A 0.29 0.28 -65.4 0 0 732.43 619.19&#10;  Z&#10;  M 258.93 623.04&#10;  L 244.70 623.04&#10;  A 0.45 0.44 -82.0 0 1 244.28 622.47&#10;  L 245.90 616.75&#10;  A 0.83 0.83 0.0 0 1 246.70 616.14&#10;  L 262.72 616.14&#10;  A 0.81 0.77 61.5 0 1 263.18 616.29&#10;  L 265.74 618.12&#10;  A 0.23 0.23 0.0 0 0 266.10 617.93&#10;  L 266.10 606.36&#10;  A 0.45 0.45 0.0 0 0 265.65 605.91&#10;  L 249.97 605.91&#10;  A 0.53 0.52 7.6 0 1 249.46 605.25&#10;  L 253.52 590.94&#10;  A 0.93 0.92 -82.1 0 1 254.41 590.26&#10;  L 262.12 590.26&#10;  A 1.56 1.55 -26.8 0 1 263.04 590.56&#10;  L 265.36 592.21&#10;  A 0.23 0.23 0.0 0 0 265.73 592.02&#10;  L 265.73 580.50&#10;  A 0.70 0.70 0.0 0 0 265.03 579.80&#10;  L 238.75 579.80&#10;  A 0.56 0.56 0.0 0 1 238.25 578.98&#10;  L 242.61 570.46&#10;  A 0.52 0.52 0.0 0 0 242.15 569.71&#10;  L 225.74 569.71&#10;  A 0.41 0.41 0.0 0 0 225.43 570.38&#10;  L 226.69 571.90&#10;  A 1.33 1.32 38.8 0 1 226.85 573.34&#10;  L 218.54 589.58&#10;  A 0.46 0.45 -76.6 0 0 218.94 590.24&#10;  L 237.87 590.24&#10;  A 0.39 0.39 0.0 0 1 238.25 590.74&#10;  L 234.11 605.36&#10;  A 0.75 0.75 0.0 0 1 233.39 605.90&#10;  L 222.10 605.90&#10;  A 1.38 1.33 -26.3 0 1 221.31 605.65&#10;  L 218.31 603.51&#10;  A 0.48 0.48 0.0 0 0 217.55 603.90&#10;  L 217.55 615.72&#10;  A 0.44 0.44 0.0 0 0 217.99 616.16&#10;  L 230.37 616.16&#10;  A 0.53 0.53 0.0 0 1 230.88 616.83&#10;  L 219.32 657.62&#10;  A 0.47 0.47 0.0 0 0 219.77 658.22&#10;  L 233.18 658.22&#10;  A 1.00 0.99 7.6 0 0 234.14 657.49&#10;  L 242.48 628.06&#10;  A 0.40 0.40 0.0 0 1 243.24 628.05&#10;  L 252.54 657.70&#10;  A 0.74 0.73 -8.6 0 0 253.24 658.21&#10;  L 266.95 658.21&#10;  A 0.40 0.40 0.0 0 0 267.33 657.69&#10;  L 257.69 626.94&#10;  A 1.71 1.70 -42.2 0 1 257.75 625.78&#10;  Q 258.24 624.68 259.22 623.76&#10;  A 0.42 0.41 23.4 0 0 258.93 623.04&#10;  Z&#10;  M 330.11 582.04&#10;  A 0.19 0.19 0.0 0 0 330.42 581.90&#10;  L 330.42 570.13&#10;  A 0.36 0.36 0.0 0 0 330.06 569.77&#10;  L 266.78 569.77&#10;  A 0.29 0.28 72.2 0 0 266.55 570.22&#10;  L 268.19 572.51&#10;  A 0.81 0.77 28.5 0 1 268.34 572.97&#10;  L 268.34 657.57&#10;  A 0.64 0.64 0.0 0 0 268.98 658.21&#10;  Q 291.13 658.20 325.26 658.23&#10;  Q 327.41 658.23 330.05 659.80&#10;  A 0.24 0.24 0.0 0 0 330.41 659.60&#10;  L 330.41 648.47&#10;  A 0.72 0.71 0.0 0 0 329.69 647.76&#10;  L 284.89 647.76&#10;  A 0.71 0.71 0.0 0 1 284.18 647.05&#10;  L 284.18 633.28&#10;  A 0.54 0.54 0.0 0 1 284.72 632.74&#10;  L 328.88 632.74&#10;  A 0.33 0.33 0.0 0 0 329.21 632.41&#10;  L 329.21 595.68&#10;  A 0.57 0.57 0.0 0 0 328.64 595.11&#10;  L 284.95 595.11&#10;  A 0.80 0.79 -0.0 0 1 284.15 594.32&#10;  L 284.15 580.89&#10;  A 0.69 0.69 0.0 0 1 284.84 580.20&#10;  Q 315.83 580.21 325.76 580.23&#10;  Q 328.10 580.23 330.11 582.04&#10;  Z&#10;  M 457.31 570.67&#10;  A 0.36 0.36 0.0 0 0 456.95 570.31&#10;  L 357.11 570.31&#10;  A 0.36 0.36 0.0 0 0 356.80 570.85&#10;  L 358.11 573.12&#10;  A 0.36 0.36 0.0 0 1 358.16 573.30&#10;  L 358.16 596.36&#10;  A 0.36 0.36 0.0 0 0 358.52 596.72&#10;  L 456.95 596.72&#10;  A 0.36 0.36 0.0 0 0 457.31 596.36&#10;  L 457.31 570.67&#10;  Z&#10;  M 652.35 609.96&#10;  L 658.46 603.11&#10;  A 2.65 2.65 0.0 0 0 659.12 601.36&#10;  L 659.12 571.98&#10;  A 0.47 0.47 0.0 0 0 658.65 571.51&#10;  L 622.30 571.51&#10;  A 0.39 0.38 -21.9 0 0 622.02 572.16&#10;  Q 623.63 573.83 623.63 576.37&#10;  Q 623.60 616.97 623.62 658.50&#10;  A 0.45 0.45 0.0 0 0 624.07 658.95&#10;  L 638.66 658.95&#10;  A 0.64 0.64 0.0 0 0 639.30 658.31&#10;  L 639.30 581.99&#10;  A 0.26 0.25 -90.0 0 1 639.55 581.73&#10;  L 647.34 581.73&#10;  A 0.23 0.23 0.0 0 1 647.57 581.96&#10;  Q 647.58 612.23 647.56 638.72&#10;  C 647.55 641.32 646.84 642.39 645.13 644.06&#10;  A 0.70 0.69 22.7 0 0 645.62 645.25&#10;  L 658.75 645.25&#10;  A 0.39 0.38 -90.0 0 0 659.13 644.86&#10;  L 659.13 611.50&#10;  A 0.64 0.64 0.0 0 0 658.49 610.86&#10;  L 652.75 610.86&#10;  A 0.54 0.54 0.0 0 1 652.35 609.96&#10;  Z&#10;  M 465.22 607.13&#10;  L 465.27 600.48&#10;  A 0.64 0.64 0.0 0 0 464.63 599.83&#10;  L 356.63 599.83&#10;  A 1.38 1.25 -31.1 0 1 356.12 599.73&#10;  L 352.86 598.41&#10;  A 0.44 0.44 0.0 0 0 352.25 598.82&#10;  L 352.25 605.53&#10;  A 0.77 0.76 0.4 0 0 353.01 606.29&#10;  Q 444.90 606.40 459.50 606.24&#10;  C 461.95 606.21 462.75 606.23 463.94 607.07&#10;  Q 464.62 607.55 464.69 607.57&#10;  A 0.45 0.45 0.0 0 0 465.22 607.13&#10;  Z&#10;  M 462.72 646.40&#10;  L 462.72 639.32&#10;  A 0.60 0.60 0.0 0 0 462.12 638.72&#10;  L 417.10 638.72&#10;  A 1.20 1.20 0.0 0 1 415.90 637.52&#10;  L 415.90 636.79&#10;  A 1.56 1.55 -90.0 0 1 417.45 635.23&#10;  L 456.51 635.23&#10;  A 0.41 0.41 0.0 0 0 456.92 634.82&#10;  L 456.92 609.55&#10;  A 0.79 0.79 0.0 0 0 456.13 608.76&#10;  L 359.34 608.76&#10;  A 0.37 0.37 0.0 0 0 359.03 609.34&#10;  Q 360.08 610.87 360.08 612.75&#10;  Q 360.08 612.95 360.10 634.86&#10;  A 0.37 0.37 0.0 0 0 360.47 635.23&#10;  L 399.54 635.23&#10;  A 1.02 1.02 0.0 0 1 400.56 636.25&#10;  L 400.56 637.71&#10;  A 1.00 1.00 0.0 0 1 399.56 638.71&#10;  Q 390.07 638.73 361.63 638.70&#10;  C 359.34 638.70 358.19 638.35 356.30 637.34&#10;  A 0.42 0.42 0.0 0 0 355.68 637.71&#10;  L 355.68 644.88&#10;  A 0.58 0.58 0.0 0 0 356.26 645.46&#10;  L 399.95 645.46&#10;  A 0.51 0.51 0.0 0 1 400.46 645.97&#10;  L 400.46 651.45&#10;  A 0.48 0.48 0.0 0 1 399.98 651.93&#10;  Q 371.91 651.84 358.50 651.92&#10;  Q 355.62 651.93 353.11 650.30&#10;  A 0.55 0.54 -73.5 0 0 352.27 650.76&#10;  L 352.27 658.36&#10;  A 0.59 0.59 0.0 0 0 352.86 658.95&#10;  L 461.97 658.95&#10;  A 1.29 1.27 60.3 0 1 462.64 659.14&#10;  L 464.61 660.35&#10;  A 0.43 0.42 15.9 0 0 465.26 659.99&#10;  L 465.26 652.49&#10;  A 0.60 0.60 0.0 0 0 464.66 651.89&#10;  L 417.26 651.89&#10;  A 1.12 1.12 0.0 0 1 416.14 650.77&#10;  L 416.14 646.44&#10;  A 0.98 0.98 0.0 0 1 417.12 645.46&#10;  L 458.03 645.45&#10;  A 8.44 8.29 52.2 0 1 460.39 645.77&#10;  Q 461.39 646.06 462.00 646.69&#10;  A 0.42 0.42 0.0 0 0 462.72 646.40&#10;  Z&#10;  M 244.17 689.74&#10;  A 0.19 0.19 0.0 0 1 244.54 689.73&#10;  L 249.30 715.80&#10;  A 0.79 0.79 0.0 0 0 250.08 716.45&#10;  L 252.87 716.45&#10;  A 0.55 0.55 0.0 0 0 253.41 715.81&#10;  L 246.89 680.16&#10;  A 1.04 1.04 0.0 0 0 245.87 679.31&#10;  L 240.28 679.31&#10;  A 0.66 0.66 0.0 0 0 239.65 680.16&#10;  Q 240.00 681.26 239.71 682.74&#10;  Q 238.36 689.86 235.79 703.86&#10;  Q 235.76 704.00 235.52 704.42&#10;  A 0.14 0.13 -34.9 0 1 235.27 704.38&#10;  L 230.81 679.99&#10;  A 0.86 0.85 84.7 0 0 229.97 679.29&#10;  L 224.03 679.29&#10;  A 0.63 0.63 0.0 0 0 223.43 680.13&#10;  Q 223.80 681.17 223.51 682.76&#10;  Q 220.47 699.35 217.35 716.02&#10;  A 0.35 0.35 0.0 0 0 217.69 716.44&#10;  L 222.77 716.44&#10;  A 0.58 0.57 -84.5 0 0 223.33 715.97&#10;  L 228.00 689.59&#10;  A 0.24 0.23 -45.6 0 1 228.46 689.58&#10;  L 233.31 716.08&#10;  A 0.45 0.44 -4.5 0 0 233.75 716.45&#10;  L 238.72 716.45&#10;  A 0.86 0.85 -84.7 0 0 239.56 715.75&#10;  L 244.17 689.74&#10;  Z&#10;  M 292.4881 679.5727&#10;  A 0.27 0.27 0.0 0 0 292.2176 679.3031&#10;  L 261.3977 679.3569&#10;  A 0.27 0.27 0.0 0 0 261.1281 679.6274&#10;  L 261.1919 716.1673&#10;  A 0.27 0.27 0.0 0 0 261.4624 716.4369&#10;  L 292.2823 716.3831&#10;  A 0.27 0.27 0.0 0 0 292.5519 716.1126&#10;  L 292.4881 679.5727&#10;  Z&#10;  M 326.25 689.72&#10;  A 0.19 0.19 0.0 0 1 326.62 689.71&#10;  L 331.41 715.76&#10;  A 0.79 0.79 0.0 0 0 332.19 716.41&#10;  L 334.98 716.41&#10;  A 0.55 0.55 0.0 0 0 335.51 715.77&#10;  L 328.96 680.14&#10;  A 1.04 1.04 0.0 0 0 327.94 679.29&#10;  L 322.35 679.30&#10;  A 0.66 0.66 0.0 0 0 321.72 680.15&#10;  Q 322.07 681.25 321.79 682.73&#10;  Q 320.44 689.84 317.89 703.84&#10;  Q 317.86 703.98 317.62 704.40&#10;  A 0.14 0.13 -34.9 0 1 317.37 704.36&#10;  L 312.89 679.99&#10;  A 0.86 0.85 84.7 0 0 312.05 679.29&#10;  L 306.11 679.29&#10;  A 0.63 0.63 0.0 0 0 305.51 680.13&#10;  Q 305.88 681.17 305.59 682.76&#10;  Q 302.57 699.35 299.47 716.02&#10;  A 0.35 0.35 0.0 0 0 299.81 716.44&#10;  L 304.89 716.43&#10;  A 0.58 0.57 -84.5 0 0 305.45 715.96&#10;  L 310.09 689.59&#10;  A 0.24 0.23 -45.7 0 1 310.55 689.57&#10;  L 315.42 716.06&#10;  A 0.45 0.44 -4.6 0 0 315.86 716.43&#10;  L 320.83 716.42&#10;  A 0.86 0.85 -84.8 0 0 321.67 715.72&#10;  L 326.25 689.72&#10;  Z&#10;  M 372.68 684.90&#10;  L 372.68 679.92&#10;  A 0.58 0.58 0.0 0 0 372.10 679.34&#10;  L 343.14 679.34&#10;  A 0.48 0.47 -7.8 0 0 342.68 679.94&#10;  C 342.93 680.85 343.30 681.40 343.30 682.59&#10;  Q 343.33 706.41 343.30 714.33&#10;  A 0.51 0.51 0.0 0 0 343.81 714.85&#10;  L 369.75 714.85&#10;  A 3.09 3.05 55.6 0 1 370.89 715.07&#10;  L 372.24 715.62&#10;  A 0.32 0.32 0.0 0 0 372.68 715.33&#10;  L 372.68 709.67&#10;  A 0.45 0.44 -0.0 0 0 372.23 709.23&#10;  L 349.71 709.23&#10;  A 0.63 0.62 -90.0 0 1 349.09 708.60&#10;  L 349.09 700.38&#10;  A 0.65 0.64 -90.0 0 1 349.73 699.73&#10;  L 369.05 699.73&#10;  A 1.63 1.47 53.1 0 1 369.62 699.84&#10;  L 371.30 700.53&#10;  A 0.32 0.32 0.0 0 0 371.74 700.23&#10;  L 371.74 694.85&#10;  A 0.53 0.53 0.0 0 0 371.21 694.32&#10;  L 349.67 694.32&#10;  A 0.56 0.56 0.0 0 1 349.11 693.76&#10;  L 349.11 685.19&#10;  A 0.56 0.56 0.0 0 1 349.67 684.63&#10;  Q 354.31 684.60 370.22 684.63&#10;  C 370.86 684.63 371.42 685.16 371.91 685.39&#10;  A 0.54 0.54 0.0 0 0 372.68 684.90&#10;  Z&#10;  M 379.96 680.04&#10;  C 380.21 680.95 380.42 681.65 380.42 682.81&#10;  Q 380.41 700.19 380.42 715.74&#10;  A 0.58 0.58 0.0 0 0 381.00 716.32&#10;  L 385.72 716.32&#10;  A 0.60 0.60 0.0 0 0 386.32 715.72&#10;  L 386.32 685.79&#10;  A 0.79 0.79 0.0 0 1 387.10 685.01&#10;  L 403.13 685.01&#10;  A 0.69 0.69 0.0 0 1 403.82 685.69&#10;  L 403.82 715.71&#10;  A 0.60 0.60 0.0 0 0 404.42 716.31&#10;  L 409.12 716.31&#10;  A 0.60 0.59 -0.0 0 0 409.72 715.72&#10;  L 409.71 679.82&#10;  A 0.47 0.46 -0.0 0 0 409.24 679.36&#10;  L 380.48 679.36&#10;  A 0.54 0.53 -7.8 0 0 379.96 680.04&#10;  Z&#10;  M 483.23 685.26&#10;  L 483.16 679.83&#10;  A 0.50 0.50 0.0 0 0 482.66 679.34&#10;  L 454.20 679.34&#10;  A 0.37 0.37 0.0 0 0 453.83 679.71&#10;  L 453.83 698.27&#10;  A 0.65 0.65 0.0 0 0 454.48 698.92&#10;  L 476.75 698.92&#10;  A 0.53 0.53 0.0 0 1 477.28 699.45&#10;  L 477.28 708.57&#10;  A 0.69 0.69 0.0 0 1 476.60 709.26&#10;  Q 463.71 709.36 456.23 709.20&#10;  C 455.55 709.19 454.74 708.61 454.28 708.38&#10;  A 0.32 0.32 0.0 0 0 453.82 708.67&#10;  L 453.82 714.52&#10;  A 0.57 0.57 0.0 0 0 454.39 715.09&#10;  Q 465.67 714.97 480.57 715.05&#10;  C 481.32 715.06 482.12 715.43 482.66 715.61&#10;  A 0.38 0.37 -81.0 0 0 483.15 715.25&#10;  L 483.15 693.98&#10;  A 0.40 0.39 -0.0 0 0 482.75 693.59&#10;  L 460.39 693.59&#10;  A 0.60 0.59 -90.0 0 1 459.80 692.99&#10;  L 459.80 685.41&#10;  A 0.59 0.58 90.0 0 1 460.38 684.82&#10;  Q 476.02 684.78 480.56 684.81&#10;  Q 481.18 684.81 481.65 685.03&#10;  Q 482.69 685.51 482.71 685.52&#10;  A 0.32 0.32 0.0 0 0 483.23 685.26&#10;  Z&#10;  M 519.2681 679.5648&#10;  A 0.27 0.27 0.0 0 0 518.9976 679.2953&#10;  L 513.5776 679.3048&#10;  A 0.27 0.27 0.0 0 0 513.3081 679.5752&#10;  L 513.3719 716.1152&#10;  A 0.27 0.27 0.0 0 0 513.6424 716.3847&#10;  L 519.0624 716.3752&#10;  A 0.27 0.27 0.0 0 0 519.3319 716.1048&#10;  L 519.2681 679.5648&#10;  Z&#10;  M 531.09 680.00&#10;  C 531.34 680.92 531.55 681.62 531.55 682.79&#10;  Q 531.53 700.26 531.53 715.91&#10;  A 0.58 0.58 0.0 0 0 532.12 716.49&#10;  L 536.86 716.49&#10;  A 0.60 0.60 0.0 0 0 537.46 715.89&#10;  L 537.48 685.79&#10;  A 0.79 0.79 0.0 0 1 538.27 685.00&#10;  L 554.38 685.01&#10;  A 0.69 0.69 0.0 0 1 555.07 685.70&#10;  L 555.06 715.89&#10;  A 0.60 0.60 0.0 0 0 555.66 716.49&#10;  L 560.39 716.49&#10;  A 0.60 0.59 0.0 0 0 560.99 715.90&#10;  L 561.01 679.79&#10;  A 0.47 0.46 0.0 0 0 560.54 679.33&#10;  L 531.61 679.32&#10;  A 0.54 0.54 0.0 0 0 531.09 680.00&#10;  Z&#10;  M 597.56 695.29&#10;  A 0.40 0.39 90.0 0 0 597.17 694.89&#10;  L 575.69 694.89&#10;  A 0.52 0.52 0.0 0 1 575.17 694.37&#10;  L 575.17 685.43&#10;  A 0.63 0.62 90.0 0 1 575.79 684.80&#10;  Q 577.15 684.81 595.26 684.80&#10;  Q 596.78 684.80 598.13 685.75&#10;  A 0.27 0.27 0.0 0 0 598.56 685.53&#10;  L 598.56 679.96&#10;  A 0.64 0.63 -90.0 0 0 597.93 679.32&#10;  L 569.13 679.32&#10;  A 0.52 0.52 0.0 0 0 568.63 679.98&#10;  C 568.88 680.91 569.19 681.57 569.19 682.75&#10;  Q 569.12 699.96 569.21 715.76&#10;  A 0.64 0.64 0.0 0 0 569.85 716.40&#10;  L 574.51 716.40&#10;  A 0.64 0.63 90.0 0 0 575.14 715.76&#10;  L 575.14 701.37&#10;  A 0.52 0.52 0.0 0 1 575.64 700.85&#10;  Q 590.16 700.30 597.27 701.18&#10;  A 0.26 0.26 0.0 0 0 597.56 700.92&#10;  L 597.56 695.29&#10;  Z&#10;  M 612.2181 679.5848&#10;  A 0.26 0.26 0.0 0 0 611.9577 679.3252&#10;  L 606.4577 679.3348&#10;  A 0.26 0.26 0.0 0 0 606.1981 679.5953&#10;  L 606.2619 716.1152&#10;  A 0.26 0.26 0.0 0 0 606.5223 716.3748&#10;  L 612.0223 716.3652&#10;  A 0.26 0.26 0.0 0 0 612.2819 716.1047&#10;  L 612.2181 679.5848&#10;  Z&#10;  M 619.43 680.02&#10;  C 619.68 680.94 619.89 681.64 619.89 682.80&#10;  Q 619.88 700.25 619.89 715.87&#10;  A 0.58 0.58 0.0 0 0 620.47 716.45&#10;  L 625.21 716.45&#10;  A 0.60 0.60 0.0 0 0 625.81 715.85&#10;  L 625.81 685.80&#10;  A 0.79 0.79 0.0 0 1 626.60 685.01&#10;  L 642.69 685.01&#10;  A 0.69 0.69 0.0 0 1 643.38 685.70&#10;  L 643.38 715.84&#10;  A 0.60 0.60 0.0 0 0 643.98 716.44&#10;  L 648.70 716.44&#10;  A 0.60 0.59 0.0 0 0 649.30 715.85&#10;  L 649.30 679.80&#10;  A 0.47 0.46 0.0 0 0 648.83 679.34&#10;  L 619.95 679.34&#10;  A 0.54 0.54 0.0 0 0 619.43 680.02&#10;  Z&#10;  M 663.1862 679.5697&#10;  A 0.26 0.26 0.0 0 0 662.9253 679.3106&#10;  L 657.4653 679.3296&#10;  A 0.26 0.26 0.0 0 0 657.2062 679.5905&#10;  L 657.3338 716.1303&#10;  A 0.26 0.26 0.0 0 0 657.5947 716.3894&#10;  L 663.0547 716.3704&#10;  A 0.26 0.26 0.0 0 0 663.3138 716.1095&#10;  L 663.1862 679.5697&#10;  Z&#10;  M 723.82 715.77&#10;  Q 723.91 708.27 723.82 700.25&#10;  Q 723.79 697.89 724.76 696.28&#10;  Q 732.12 683.95 734.47 680.36&#10;  A 0.68 0.68 0.0 0 0 733.90 679.30&#10;  L 729.94 679.30&#10;  A 2.11 2.10 -74.0 0 0 728.15 680.30&#10;  L 721.64 690.91&#10;  A 0.25 0.25 0.0 0 1 721.21 690.90&#10;  L 714.76 679.74&#10;  A 0.85 0.84 -14.3 0 0 714.02 679.31&#10;  L 706.82 679.31&#10;  A 0.40 0.40 0.0 0 0 706.63 680.06&#10;  Q 707.94 680.81 708.58 681.97&#10;  Q 715.60 694.66 716.97 697.12&#10;  Q 717.98 698.93 717.97 702.49&#10;  Q 717.96 705.86 717.93 715.79&#10;  A 0.64 0.63 0.0 0 0 718.57 716.42&#10;  L 723.16 716.42&#10;  A 0.66 0.66 0.0 0 0 723.82 715.77&#10;  Z&#10;  M 669.81 679.96&#10;  L 669.81 685.59&#10;  A 0.63 0.62 0.0 0 0 670.44 686.21&#10;  L 680.97 686.21&#10;  A 0.50 0.50 0.0 0 1 681.47 686.71&#10;  L 681.47 715.81&#10;  A 0.64 0.63 -90.0 0 0 682.10 716.45&#10;  L 686.75 716.45&#10;  A 0.59 0.59 0.0 0 0 687.34 715.86&#10;  L 687.34 686.79&#10;  A 0.48 0.47 87.4 0 1 687.77 686.31&#10;  Q 694.77 685.61 699.12 686.86&#10;  A 0.17 0.17 0.0 0 0 699.34 686.70&#10;  L 699.34 680.98&#10;  A 0.35 0.35 0.0 0 0 698.99 680.63&#10;  Q 682.40 680.69 672.95 680.65&#10;  C 671.91 680.65 671.23 680.20 670.18 679.72&#10;  A 0.26 0.26 0.0 0 0 669.81 679.96&#10;  Z&#10;  M 416.68 679.97&#10;  L 416.68 685.59&#10;  A 0.63 0.62 0.0 0 0 417.31 686.20&#10;  L 427.81 686.21&#10;  A 0.50 0.50 0.0 0 1 428.31 686.71&#10;  L 428.30 715.73&#10;  A 0.64 0.63 -90.0 0 0 428.92 716.37&#10;  L 433.56 716.37&#10;  A 0.59 0.59 0.0 0 0 434.15 715.78&#10;  L 434.16 686.79&#10;  A 0.48 0.47 87.4 0 1 434.59 686.31&#10;  Q 441.57 685.62 445.91 686.86&#10;  A 0.17 0.17 0.0 0 0 446.13 686.70&#10;  L 446.13 681.00&#10;  A 0.35 0.35 0.0 0 0 445.78 680.65&#10;  Q 429.24 680.70 419.81 680.66&#10;  C 418.78 680.66 418.10 680.21 417.05 679.73&#10;  A 0.26 0.26 0.0 0 0 416.68 679.97&#10;  Z"/>
<path fill="#2a80c1" d="&#10;  M 371.75 272.04&#10;  Q 371.29 282.91 370.05 318.08&#10;  Q 369.16 343.11 374.75 366.83&#10;  L 347.67 347.38&#10;  A 1.00 0.98 -44.7 0 0 346.52 347.38&#10;  L 218.45 438.82&#10;  A 0.60 0.59 72.2 0 1 217.51 438.33&#10;  L 217.51 347.93&#10;  A 2.37 2.37 0.0 0 1 218.49 346.01&#10;  L 346.12 254.88&#10;  A 1.37 1.37 0.0 0 1 347.70 254.88&#10;  L 371.75 272.04&#10;  Z"/>
<path fill="#73b12a" d="&#10;  M 715.52 329.01&#10;  L 606.03 407.19&#10;  A 0.84 0.84 0.0 0 1 605.05 407.19&#10;  L 495.51 329.03&#10;  A 0.84 0.84 0.0 0 1 495.53 327.64&#10;  L 605.03 254.62&#10;  A 0.84 0.84 0.0 0 1 605.97 254.62&#10;  L 715.50 327.62&#10;  A 0.84 0.84 0.0 0 1 715.52 329.01&#10;  Z"/>
<path fill="#309ed4" d="&#10;  M 551.24 400.22&#10;  C 544.11 407.42 541.75 415.54 541.23 424.69&#10;  C 540.03 445.95 542.79 467.27 545.22 488.64&#10;  L 374.75 366.83&#10;  Q 369.16 343.11 370.05 318.08&#10;  Q 371.29 282.91 371.75 272.04&#10;  L 551.24 400.22&#10;  Z"/>
<path fill="#35addc" d="&#10;  M 545.22 488.64&#10;  C 542.79 467.27 540.03 445.95 541.23 424.69&#10;  C 541.75 415.54 544.11 407.42 551.24 400.22&#10;  L 604.98 438.63&#10;  A 1.05 1.05 0.0 0 0 606.18 438.63&#10;  L 734.00 347.36&#10;  A 0.61 0.60 -17.8 0 1 734.96 347.85&#10;  L 734.96 438.16&#10;  A 2.28 2.27 72.4 0 1 734.00 440.02&#10;  L 606.55 531.02&#10;  A 1.71 1.69 -44.8 0 1 604.58 531.02&#10;  L 545.22 488.64&#10;  Z"/>
<path fill="#73b12a" d="&#10;  M 236.87 457.04&#10;  L 346.53 378.74&#10;  A 0.81 0.81 0.0 0 1 347.47 378.74&#10;  L 457.17 457.01&#10;  A 0.81 0.81 0.0 0 1 457.15 458.34&#10;  L 347.48 531.49&#10;  A 0.81 0.81 0.0 0 1 346.58 531.49&#10;  L 236.89 458.37&#10;  A 0.81 0.81 0.0 0 1 236.87 457.04&#10;  Z"/>
<path fill="#363534" d="&#10;  M 517.98 615.14&#10;  A 0.26 0.26 0.0 0 0 517.75 614.77&#10;  L 490.18 614.77&#10;  A 0.58 0.58 0.0 0 1 489.60 614.19&#10;  L 489.60 602.76&#10;  A 0.46 0.46 0.0 0 1 490.38 602.42&#10;  Q 492.46 604.38 495.75 604.36&#10;  Q 503.61 604.30 522.59 604.33&#10;  A 1.59 1.58 13.5 0 0 524.00 603.47&#10;  L 534.97 582.02&#10;  A 0.49 0.49 0.0 0 0 534.53 581.31&#10;  L 492.38 581.31&#10;  A 0.51 0.51 0.0 0 1 491.87 580.80&#10;  L 491.87 569.12&#10;  A 0.45 0.45 0.0 0 1 492.58 568.76&#10;  C 494.47 570.13 495.49 570.88 497.99 570.88&#10;  Q 583.72 570.88 594.69 570.89&#10;  A 0.56 0.56 0.0 0 1 595.25 571.45&#10;  L 595.25 582.98&#10;  A 0.34 0.34 0.0 0 1 594.64 583.19&#10;  Q 593.06 581.23 590.01 581.25&#10;  Q 574.22 581.39 554.68 581.28&#10;  A 1.82 1.81 -76.2 0 0 553.07 582.26&#10;  L 542.12 603.68&#10;  A 0.44 0.44 0.0 0 0 542.51 604.32&#10;  L 596.83 604.32&#10;  A 0.54 0.53 0.0 0 1 597.37 604.85&#10;  L 597.37 616.51&#10;  A 0.39 0.39 0.0 0 1 596.67 616.74&#10;  C 594.91 614.38 593.26 614.80 589.88 614.80&#10;  Q 572.04 614.80 566.93 614.76&#10;  A 0.64 0.64 0.0 0 0 566.29 615.40&#10;  L 566.29 647.09&#10;  A 0.67 0.66 0.0 0 0 566.96 647.75&#10;  Q 585.91 647.79 591.76 647.73&#10;  Q 594.38 647.70 596.36 645.77&#10;  A 0.59 0.59 0.0 0 1 597.36 646.19&#10;  L 597.36 657.66&#10;  A 0.55 0.55 0.0 0 1 596.81 658.21&#10;  Q 557.65 658.21 554.75 658.26&#10;  Q 553.55 658.27 551.10 659.86&#10;  A 0.30 0.30 0.0 0 1 550.64 659.61&#10;  L 550.64 615.20&#10;  A 0.43 0.42 -0.0 0 0 550.21 614.78&#10;  L 536.92 614.78&#10;  A 1.07 1.06 -76.0 0 0 535.98 615.35&#10;  L 514.36 657.62&#10;  A 1.36 1.36 0.0 0 1 513.15 658.36&#10;  L 489.96 658.36&#10;  A 0.54 0.53 0.0 0 1 489.42 657.83&#10;  L 489.42 646.14&#10;  A 0.64 0.64 0.0 0 1 490.50 645.67&#10;  C 491.72 646.81 492.75 647.68 494.37 647.71&#10;  Q 497.42 647.75 500.64 647.79&#10;  A 1.04 1.04 0.0 0 0 501.56 647.23&#10;  L 517.98 615.14&#10;  Z"/>
<path fill="#363534" d="&#10;  M 732.43 619.19&#10;  A 0.29 0.28 -65.4 0 1 731.93 619.38&#10;  Q 730.00 617.13 728.39 617.12&#10;  Q 719.37 617.06 701.02 617.11&#10;  A 0.42 0.42 0.0 0 0 700.70 617.79&#10;  L 712.53 632.02&#10;  A 0.46 0.46 0.0 0 0 713.27 631.98&#10;  L 716.93 626.49&#10;  A 2.43 2.42 16.8 0 1 718.95 625.41&#10;  L 731.80 625.41&#10;  A 0.26 0.26 0.0 0 1 732.02 625.80&#10;  L 721.70 642.63&#10;  A 0.80 0.80 0.0 0 0 721.77 643.56&#10;  L 734.56 658.96&#10;  A 0.38 0.37 -19.5 0 1 734.26 659.57&#10;  L 718.37 659.57&#10;  A 1.63 1.63 0.0 0 1 717.09 658.95&#10;  Q 695.46 631.22 685.28 618.33&#10;  Q 684.33 617.13 682.97 616.92&#10;  A 1.34 1.34 0.0 0 0 681.42 618.24&#10;  L 681.42 646.87&#10;  A 0.90 0.90 0.0 0 0 682.32 647.77&#10;  L 690.34 647.77&#10;  A 0.58 0.58 0.0 0 1 690.92 648.35&#10;  L 690.92 659.66&#10;  A 0.27 0.27 0.0 0 1 690.46 659.86&#10;  Q 688.77 658.23 686.50 658.22&#10;  Q 676.87 658.21 666.21 658.20&#10;  A 0.43 0.43 0.0 0 1 665.78 657.77&#10;  L 665.78 569.63&#10;  A 0.43 0.43 0.0 0 1 666.51 569.33&#10;  Q 668.71 571.50 672.50 571.51&#10;  Q 691.77 571.56 732.07 571.49&#10;  A 0.37 0.36 90.0 0 1 732.43 571.86&#10;  L 732.43 619.19&#10;  Z&#10;  M 716.8149 582.4391&#10;  A 0.66 0.66 0.0 0 0 716.1538 581.7803&#10;  L 682.0938 581.8397&#10;  A 0.66 0.66 0.0 0 0 681.4350 582.5009&#10;  L 681.4451 588.2809&#10;  A 0.66 0.66 0.0 0 0 682.1062 588.9397&#10;  L 716.1662 588.8803&#10;  A 0.66 0.66 0.0 0 0 716.8250 588.2191&#10;  L 716.8149 582.4391&#10;  Z&#10;  M 716.82 599.72&#10;  A 0.69 0.69 0.0 0 0 716.13 599.03&#10;  L 682.11 599.03&#10;  A 0.69 0.69 0.0 0 0 681.42 599.72&#10;  L 681.42 606.14&#10;  A 0.69 0.69 0.0 0 0 682.11 606.83&#10;  L 716.13 606.83&#10;  A 0.69 0.69 0.0 0 0 716.82 606.14&#10;  L 716.82 599.72&#10;  Z"/>
<path fill="#363534" d="&#10;  M 258.93 623.04&#10;  A 0.42 0.41 23.4 0 1 259.22 623.76&#10;  Q 258.24 624.68 257.75 625.78&#10;  A 1.71 1.70 -42.2 0 0 257.69 626.94&#10;  L 267.33 657.69&#10;  A 0.40 0.40 0.0 0 1 266.95 658.21&#10;  L 253.24 658.21&#10;  A 0.74 0.73 -8.6 0 1 252.54 657.70&#10;  L 243.24 628.05&#10;  A 0.40 0.40 0.0 0 0 242.48 628.06&#10;  L 234.14 657.49&#10;  A 1.00 0.99 7.6 0 1 233.18 658.22&#10;  L 219.77 658.22&#10;  A 0.47 0.47 0.0 0 1 219.32 657.62&#10;  L 230.88 616.83&#10;  A 0.53 0.53 0.0 0 0 230.37 616.16&#10;  L 217.99 616.16&#10;  A 0.44 0.44 0.0 0 1 217.55 615.72&#10;  L 217.55 603.90&#10;  A 0.48 0.48 0.0 0 1 218.31 603.51&#10;  L 221.31 605.65&#10;  A 1.38 1.33 -26.3 0 0 222.10 605.90&#10;  L 233.39 605.90&#10;  A 0.75 0.75 0.0 0 0 234.11 605.36&#10;  L 238.25 590.74&#10;  A 0.39 0.39 0.0 0 0 237.87 590.24&#10;  L 218.94 590.24&#10;  A 0.46 0.45 -76.6 0 1 218.54 589.58&#10;  L 226.85 573.34&#10;  A 1.33 1.32 38.8 0 0 226.69 571.90&#10;  L 225.43 570.38&#10;  A 0.41 0.41 0.0 0 1 225.74 569.71&#10;  L 242.15 569.71&#10;  A 0.52 0.52 0.0 0 1 242.61 570.46&#10;  L 238.25 578.98&#10;  A 0.56 0.56 0.0 0 0 238.75 579.80&#10;  L 265.03 579.80&#10;  A 0.70 0.70 0.0 0 1 265.73 580.50&#10;  L 265.73 592.02&#10;  A 0.23 0.23 0.0 0 1 265.36 592.21&#10;  L 263.04 590.56&#10;  A 1.56 1.55 -26.8 0 0 262.12 590.26&#10;  L 254.41 590.26&#10;  A 0.93 0.92 -82.1 0 0 253.52 590.94&#10;  L 249.46 605.25&#10;  A 0.53 0.52 7.6 0 0 249.97 605.91&#10;  L 265.65 605.91&#10;  A 0.45 0.45 0.0 0 1 266.10 606.36&#10;  L 266.10 617.93&#10;  A 0.23 0.23 0.0 0 1 265.74 618.12&#10;  L 263.18 616.29&#10;  A 0.81 0.77 61.5 0 0 262.72 616.14&#10;  L 246.70 616.14&#10;  A 0.83 0.83 0.0 0 0 245.90 616.75&#10;  L 244.28 622.47&#10;  A 0.45 0.44 -82.0 0 0 244.70 623.04&#10;  L 258.93 623.04&#10;  Z"/>
<path fill="#363534" d="&#10;  M 330.11 582.04&#10;  Q 328.10 580.23 325.76 580.23&#10;  Q 315.83 580.21 284.84 580.20&#10;  A 0.69 0.69 0.0 0 0 284.15 580.89&#10;  L 284.15 594.32&#10;  A 0.80 0.79 0.0 0 0 284.95 595.11&#10;  L 328.64 595.11&#10;  A 0.57 0.57 0.0 0 1 329.21 595.68&#10;  L 329.21 632.41&#10;  A 0.33 0.33 0.0 0 1 328.88 632.74&#10;  L 284.72 632.74&#10;  A 0.54 0.54 0.0 0 0 284.18 633.28&#10;  L 284.18 647.05&#10;  A 0.71 0.71 0.0 0 0 284.89 647.76&#10;  L 329.69 647.76&#10;  A 0.72 0.71 -0.0 0 1 330.41 648.47&#10;  L 330.41 659.60&#10;  A 0.24 0.24 0.0 0 1 330.05 659.80&#10;  Q 327.41 658.23 325.26 658.23&#10;  Q 291.13 658.20 268.98 658.21&#10;  A 0.64 0.64 0.0 0 1 268.34 657.57&#10;  L 268.34 572.97&#10;  A 0.81 0.77 28.5 0 0 268.19 572.51&#10;  L 266.55 570.22&#10;  A 0.29 0.28 72.2 0 1 266.78 569.77&#10;  L 330.06 569.77&#10;  A 0.36 0.36 0.0 0 1 330.42 570.13&#10;  L 330.42 581.90&#10;  A 0.19 0.19 0.0 0 1 330.11 582.04&#10;  Z&#10;  M 313.5763 606.1343&#10;  A 0.70 0.70 0.0 0 0 312.8751 605.4356&#10;  L 284.8552 605.4845&#10;  A 0.70 0.70 0.0 0 0 284.1564 606.1857&#10;  L 284.1837 621.8057&#10;  A 0.70 0.70 0.0 0 0 284.8849 622.5044&#10;  L 312.9048 622.4555&#10;  A 0.70 0.70 0.0 0 0 313.6036 621.7543&#10;  L 313.5763 606.1343&#10;  Z"/>
<path fill="#363534" d="&#10;  M 457.31 570.67&#10;  L 457.31 596.36&#10;  A 0.36 0.36 0.0 0 1 456.95 596.72&#10;  L 358.52 596.72&#10;  A 0.36 0.36 0.0 0 1 358.16 596.36&#10;  L 358.16 573.30&#10;  A 0.36 0.36 0.0 0 0 358.11 573.12&#10;  L 356.80 570.85&#10;  A 0.36 0.36 0.0 0 1 357.11 570.31&#10;  L 456.95 570.31&#10;  A 0.36 0.36 0.0 0 1 457.31 570.67&#10;  Z&#10;  M 441.74 578.32&#10;  A 0.96 0.96 0.0 0 0 440.78 577.36&#10;  L 374.54 577.36&#10;  A 0.96 0.96 0.0 0 0 373.58 578.32&#10;  L 373.58 580.20&#10;  A 0.96 0.96 0.0 0 0 374.54 581.16&#10;  L 440.78 581.16&#10;  A 0.96 0.96 0.0 0 0 441.74 580.20&#10;  L 441.74 578.32&#10;  Z&#10;  M 441.71 587.07&#10;  A 0.91 0.91 0.0 0 0 440.80 586.16&#10;  L 374.58 586.16&#10;  A 0.91 0.91 0.0 0 0 373.67 587.07&#10;  L 373.67 588.97&#10;  A 0.91 0.91 0.0 0 0 374.58 589.88&#10;  L 440.80 589.88&#10;  A 0.91 0.91 0.0 0 0 441.71 588.97&#10;  L 441.71 587.07&#10;  Z"/>
<path fill="#363534" d="&#10;  M 652.75 610.86&#10;  L 658.49 610.86&#10;  A 0.64 0.64 0.0 0 1 659.13 611.50&#10;  L 659.13 644.86&#10;  A 0.39 0.38 -90.0 0 1 658.75 645.25&#10;  L 645.62 645.25&#10;  A 0.70 0.69 22.7 0 1 645.13 644.06&#10;  C 646.84 642.39 647.55 641.32 647.56 638.72&#10;  Q 647.58 612.23 647.57 581.96&#10;  A 0.23 0.23 0.0 0 0 647.34 581.73&#10;  L 639.55 581.73&#10;  A 0.26 0.25 90.0 0 0 639.30 581.99&#10;  L 639.30 658.31&#10;  A 0.64 0.64 0.0 0 1 638.66 658.95&#10;  L 624.07 658.95&#10;  A 0.45 0.45 0.0 0 1 623.62 658.50&#10;  Q 623.60 616.97 623.63 576.37&#10;  Q 623.63 573.83 622.02 572.16&#10;  A 0.39 0.38 -21.9 0 1 622.30 571.51&#10;  L 658.65 571.51&#10;  A 0.47 0.47 0.0 0 1 659.12 571.98&#10;  L 659.12 601.36&#10;  A 2.65 2.65 0.0 0 1 658.46 603.11&#10;  L 652.35 609.96&#10;  A 0.54 0.54 0.0 0 0 652.75 610.86&#10;  Z"/>
<rect fill="#ffffff" x="373.58" y="577.36" width="68.16" height="3.80" rx="0.96"/>
<rect fill="#ffffff" x="-17.69" y="-3.55" transform="translate(699.13,585.36) rotate(-0.1)" width="35.38" height="7.10" rx="0.66"/>
<rect fill="#ffffff" x="373.67" y="586.16" width="68.04" height="3.72" rx="0.91"/>
<path fill="#363534" d="&#10;  M 464.69 607.57&#10;  Q 464.62 607.55 463.94 607.07&#10;  C 462.75 606.23 461.95 606.21 459.50 606.24&#10;  Q 444.90 606.40 353.01 606.29&#10;  A 0.77 0.76 0.4 0 1 352.25 605.53&#10;  L 352.25 598.82&#10;  A 0.44 0.44 0.0 0 1 352.86 598.41&#10;  L 356.12 599.73&#10;  A 1.38 1.25 -31.1 0 0 356.63 599.83&#10;  L 464.63 599.83&#10;  A 0.64 0.64 0.0 0 1 465.27 600.48&#10;  L 465.22 607.13&#10;  A 0.45 0.45 0.0 0 1 464.69 607.57&#10;  Z"/>
<rect fill="#ffffff" x="681.42" y="599.03" width="35.40" height="7.80" rx="0.69"/>
<rect fill="#ffffff" x="-14.71" y="-8.51" transform="translate(298.88,613.97) rotate(-0.1)" width="29.42" height="17.02" rx="0.70"/>
<path fill="#363534" d="&#10;  M 462.00 646.69&#10;  Q 461.39 646.06 460.39 645.77&#10;  A 8.44 8.29 52.2 0 0 458.03 645.45&#10;  L 417.12 645.46&#10;  A 0.98 0.98 0.0 0 0 416.14 646.44&#10;  L 416.14 650.77&#10;  A 1.12 1.12 0.0 0 0 417.26 651.89&#10;  L 464.66 651.89&#10;  A 0.60 0.60 0.0 0 1 465.26 652.49&#10;  L 465.26 659.99&#10;  A 0.43 0.42 15.9 0 1 464.61 660.35&#10;  L 462.64 659.14&#10;  A 1.29 1.27 60.3 0 0 461.97 658.95&#10;  L 352.86 658.95&#10;  A 0.59 0.59 0.0 0 1 352.27 658.36&#10;  L 352.27 650.76&#10;  A 0.55 0.54 -73.5 0 1 353.11 650.30&#10;  Q 355.62 651.93 358.50 651.92&#10;  Q 371.91 651.84 399.98 651.93&#10;  A 0.48 0.48 0.0 0 0 400.46 651.45&#10;  L 400.46 645.97&#10;  A 0.51 0.51 0.0 0 0 399.95 645.46&#10;  L 356.26 645.46&#10;  A 0.58 0.58 0.0 0 1 355.68 644.88&#10;  L 355.68 637.71&#10;  A 0.42 0.42 0.0 0 1 356.30 637.34&#10;  C 358.19 638.35 359.34 638.70 361.63 638.70&#10;  Q 390.07 638.73 399.56 638.71&#10;  A 1.00 1.00 0.0 0 0 400.56 637.71&#10;  L 400.56 636.25&#10;  A 1.02 1.02 0.0 0 0 399.54 635.23&#10;  L 360.47 635.23&#10;  A 0.37 0.37 0.0 0 1 360.10 634.86&#10;  Q 360.08 612.95 360.08 612.75&#10;  Q 360.08 610.87 359.03 609.34&#10;  A 0.37 0.37 0.0 0 1 359.34 608.76&#10;  L 456.13 608.76&#10;  A 0.79 0.79 0.0 0 1 456.92 609.55&#10;  L 456.92 634.82&#10;  A 0.41 0.41 0.0 0 1 456.51 635.23&#10;  L 417.45 635.23&#10;  A 1.56 1.55 -90.0 0 0 415.90 636.79&#10;  L 415.90 637.52&#10;  A 1.20 1.20 0.0 0 0 417.10 638.72&#10;  L 462.12 638.72&#10;  A 0.60 0.60 0.0 0 1 462.72 639.32&#10;  L 462.72 646.40&#10;  A 0.42 0.42 0.0 0 1 462.00 646.69&#10;  Z&#10;  M 400.50 616.34&#10;  A 0.77 0.77 0.0 0 0 399.73 615.57&#10;  L 374.77 615.57&#10;  A 0.77 0.77 0.0 0 0 374.00 616.34&#10;  L 374.00 618.66&#10;  A 0.77 0.77 0.0 0 0 374.77 619.43&#10;  L 399.73 619.43&#10;  A 0.77 0.77 0.0 0 0 400.50 618.66&#10;  L 400.50 616.34&#10;  Z&#10;  M 442.86 616.46&#10;  A 0.90 0.90 0.0 0 0 441.96 615.56&#10;  L 417.04 615.56&#10;  A 0.90 0.90 0.0 0 0 416.14 616.46&#10;  L 416.14 618.56&#10;  A 0.90 0.90 0.0 0 0 417.04 619.46&#10;  L 441.96 619.46&#10;  A 0.90 0.90 0.0 0 0 442.86 618.56&#10;  L 442.86 616.46&#10;  Z&#10;  M 400.4413 625.7131&#10;  A 0.90 0.90 0.0 0 0 399.5429 624.8116&#10;  L 374.8430 624.7684&#10;  A 0.90 0.90 0.0 0 0 373.9414 625.6669&#10;  L 373.9387 627.2269&#10;  A 0.90 0.90 0.0 0 0 374.8371 628.1284&#10;  L 399.5370 628.1716&#10;  A 0.90 0.90 0.0 0 0 400.4386 627.2731&#10;  L 400.4413 625.7131&#10;  Z&#10;  M 442.8789 625.8165&#10;  A 1.07 1.07 0.0 0 0 441.8070 624.7484&#10;  L 417.0671 624.7916&#10;  A 1.07 1.07 0.0 0 0 415.9990 625.8635&#10;  L 416.0011 627.0835&#10;  A 1.07 1.07 0.0 0 0 417.0730 628.1516&#10;  L 441.8129 628.1084&#10;  A 1.07 1.07 0.0 0 0 442.8810 627.0365&#10;  L 442.8789 625.8165&#10;  Z"/>
<rect fill="#ffffff" x="374.00" y="615.57" width="26.50" height="3.86" rx="0.77"/>
<rect fill="#ffffff" x="416.14" y="615.56" width="26.72" height="3.90" rx="0.90"/>
<rect fill="#ffffff" x="-13.25" y="-1.68" transform="translate(387.19,626.47) rotate(0.1)" width="26.50" height="3.36" rx="0.90"/>
<rect fill="#ffffff" x="-13.44" y="-1.68" transform="translate(429.44,626.45) rotate(-0.1)" width="26.88" height="3.36" rx="1.07"/>
<path fill="#363534" d="&#10;  M 244.17 689.74&#10;  L 239.56 715.75&#10;  A 0.86 0.85 -84.7 0 1 238.72 716.45&#10;  L 233.75 716.45&#10;  A 0.45 0.44 -4.5 0 1 233.31 716.08&#10;  L 228.46 689.58&#10;  A 0.24 0.23 -45.6 0 0 228.00 689.59&#10;  L 223.33 715.97&#10;  A 0.58 0.57 -84.5 0 1 222.77 716.44&#10;  L 217.69 716.44&#10;  A 0.35 0.35 0.0 0 1 217.35 716.02&#10;  Q 220.47 699.35 223.51 682.76&#10;  Q 223.80 681.17 223.43 680.13&#10;  A 0.63 0.63 0.0 0 1 224.03 679.29&#10;  L 229.97 679.29&#10;  A 0.86 0.85 84.7 0 1 230.81 679.99&#10;  L 235.27 704.38&#10;  A 0.14 0.13 -34.9 0 0 235.52 704.42&#10;  Q 235.76 704.00 235.79 703.86&#10;  Q 238.36 689.86 239.71 682.74&#10;  Q 240.00 681.26 239.65 680.16&#10;  A 0.66 0.66 0.0 0 1 240.28 679.31&#10;  L 245.87 679.31&#10;  A 1.04 1.04 0.0 0 1 246.89 680.16&#10;  L 253.41 715.81&#10;  A 0.55 0.55 0.0 0 1 252.87 716.45&#10;  L 250.08 716.45&#10;  A 0.79 0.79 0.0 0 1 249.30 715.80&#10;  L 244.54 689.73&#10;  A 0.19 0.19 0.0 0 0 244.17 689.74&#10;  Z"/>
<path fill="#363534" d="&#10;  M 292.5519 716.1126&#10;  A 0.27 0.27 0.0 0 1 292.2823 716.3831&#10;  L 261.4624 716.4369&#10;  A 0.27 0.27 0.0 0 1 261.1919 716.1673&#10;  L 261.1281 679.6274&#10;  A 0.27 0.27 0.0 0 1 261.3977 679.3569&#10;  L 292.2176 679.3031&#10;  A 0.27 0.27 0.0 0 1 292.4881 679.5727&#10;  L 292.5519 716.1126&#10;  Z&#10;  M 286.51 685.56&#10;  A 0.75 0.75 0.0 0 0 285.76 684.81&#10;  L 267.96 684.81&#10;  A 0.75 0.75 0.0 0 0 267.21 685.56&#10;  L 267.21 709.82&#10;  A 0.75 0.75 0.0 0 0 267.96 710.57&#10;  L 285.76 710.57&#10;  A 0.75 0.75 0.0 0 0 286.51 709.82&#10;  L 286.51 685.56&#10;  Z"/>
<path fill="#363534" d="&#10;  M 326.25 689.72&#10;  L 321.67 715.72&#10;  A 0.86 0.85 -84.8 0 1 320.83 716.42&#10;  L 315.86 716.43&#10;  A 0.45 0.44 -4.6 0 1 315.42 716.06&#10;  L 310.55 689.57&#10;  A 0.24 0.23 -45.7 0 0 310.09 689.59&#10;  L 305.45 715.96&#10;  A 0.58 0.57 -84.5 0 1 304.89 716.43&#10;  L 299.81 716.44&#10;  A 0.35 0.35 0.0 0 1 299.47 716.02&#10;  Q 302.57 699.35 305.59 682.76&#10;  Q 305.88 681.17 305.51 680.13&#10;  A 0.63 0.63 0.0 0 1 306.11 679.29&#10;  L 312.05 679.29&#10;  A 0.86 0.85 84.7 0 1 312.89 679.99&#10;  L 317.37 704.36&#10;  A 0.14 0.13 -34.9 0 0 317.62 704.40&#10;  Q 317.86 703.98 317.89 703.84&#10;  Q 320.44 689.84 321.79 682.73&#10;  Q 322.07 681.25 321.72 680.15&#10;  A 0.66 0.66 0.0 0 1 322.35 679.30&#10;  L 327.94 679.29&#10;  A 1.04 1.04 0.0 0 1 328.96 680.14&#10;  L 335.51 715.77&#10;  A 0.55 0.55 0.0 0 1 334.98 716.41&#10;  L 332.19 716.41&#10;  A 0.79 0.79 0.0 0 1 331.41 715.76&#10;  L 326.62 689.71&#10;  A 0.19 0.19 0.0 0 0 326.25 689.72&#10;  Z"/>
<path fill="#363534" d="&#10;  M 371.91 685.39&#10;  C 371.42 685.16 370.86 684.63 370.22 684.63&#10;  Q 354.31 684.60 349.67 684.63&#10;  A 0.56 0.56 0.0 0 0 349.11 685.19&#10;  L 349.11 693.76&#10;  A 0.56 0.56 0.0 0 0 349.67 694.32&#10;  L 371.21 694.32&#10;  A 0.53 0.53 0.0 0 1 371.74 694.85&#10;  L 371.74 700.23&#10;  A 0.32 0.32 0.0 0 1 371.30 700.53&#10;  L 369.62 699.84&#10;  A 1.63 1.47 53.1 0 0 369.05 699.73&#10;  L 349.73 699.73&#10;  A 0.65 0.64 90.0 0 0 349.09 700.38&#10;  L 349.09 708.60&#10;  A 0.63 0.62 -90.0 0 0 349.71 709.23&#10;  L 372.23 709.23&#10;  A 0.45 0.44 -0.0 0 1 372.68 709.67&#10;  L 372.68 715.33&#10;  A 0.32 0.32 0.0 0 1 372.24 715.62&#10;  L 370.89 715.07&#10;  A 3.09 3.05 55.6 0 0 369.75 714.85&#10;  L 343.81 714.85&#10;  A 0.51 0.51 0.0 0 1 343.30 714.33&#10;  Q 343.33 706.41 343.30 682.59&#10;  C 343.30 681.40 342.93 680.85 342.68 679.94&#10;  A 0.48 0.47 -7.8 0 1 343.14 679.34&#10;  L 372.10 679.34&#10;  A 0.58 0.58 0.0 0 1 372.68 679.92&#10;  L 372.68 684.90&#10;  A 0.54 0.54 0.0 0 1 371.91 685.39&#10;  Z"/>
<path fill="#363534" d="&#10;  M 379.96 680.04&#10;  A 0.54 0.53 -7.8 0 1 380.48 679.36&#10;  L 409.24 679.36&#10;  A 0.47 0.46 -0.0 0 1 409.71 679.82&#10;  L 409.72 715.72&#10;  A 0.60 0.59 -0.0 0 1 409.12 716.31&#10;  L 404.42 716.31&#10;  A 0.60 0.60 0.0 0 1 403.82 715.71&#10;  L 403.82 685.69&#10;  A 0.69 0.69 0.0 0 0 403.13 685.01&#10;  L 387.10 685.01&#10;  A 0.79 0.79 0.0 0 0 386.32 685.79&#10;  L 386.32 715.72&#10;  A 0.60 0.60 0.0 0 1 385.72 716.32&#10;  L 381.00 716.32&#10;  A 0.58 0.58 0.0 0 1 380.42 715.74&#10;  Q 380.41 700.19 380.42 682.81&#10;  C 380.42 681.65 380.21 680.95 379.96 680.04&#10;  Z"/>
<path fill="#363534" d="&#10;  M 482.71 685.52&#10;  Q 482.69 685.51 481.65 685.03&#10;  Q 481.18 684.81 480.56 684.81&#10;  Q 476.02 684.78 460.38 684.82&#10;  A 0.59 0.58 90.0 0 0 459.80 685.41&#10;  L 459.80 692.99&#10;  A 0.60 0.59 -90.0 0 0 460.39 693.59&#10;  L 482.75 693.59&#10;  A 0.40 0.39 -0.0 0 1 483.15 693.98&#10;  L 483.15 715.25&#10;  A 0.38 0.37 -81.0 0 1 482.66 715.61&#10;  C 482.12 715.43 481.32 715.06 480.57 715.05&#10;  Q 465.67 714.97 454.39 715.09&#10;  A 0.57 0.57 0.0 0 1 453.82 714.52&#10;  L 453.82 708.67&#10;  A 0.32 0.32 0.0 0 1 454.28 708.38&#10;  C 454.74 708.61 455.55 709.19 456.23 709.20&#10;  Q 463.71 709.36 476.60 709.26&#10;  A 0.69 0.69 0.0 0 0 477.28 708.57&#10;  L 477.28 699.45&#10;  A 0.53 0.53 0.0 0 0 476.75 698.92&#10;  L 454.48 698.92&#10;  A 0.65 0.65 0.0 0 1 453.83 698.27&#10;  L 453.83 679.71&#10;  A 0.37 0.37 0.0 0 1 454.20 679.34&#10;  L 482.66 679.34&#10;  A 0.50 0.50 0.0 0 1 483.16 679.83&#10;  L 483.23 685.26&#10;  A 0.32 0.32 0.0 0 1 482.71 685.52&#10;  Z"/>
<rect fill="#363534" x="-2.98" y="-18.54" transform="translate(516.32,697.84) rotate(-0.1)" width="5.96" height="37.08" rx="0.27"/>
<path fill="#363534" d="&#10;  M 531.09 680.00&#10;  A 0.54 0.54 0.0 0 1 531.61 679.32&#10;  L 560.54 679.33&#10;  A 0.47 0.46 0.0 0 1 561.01 679.79&#10;  L 560.99 715.90&#10;  A 0.60 0.59 0.0 0 1 560.39 716.49&#10;  L 555.66 716.49&#10;  A 0.60 0.60 0.0 0 1 555.06 715.89&#10;  L 555.07 685.70&#10;  A 0.69 0.69 0.0 0 0 554.38 685.01&#10;  L 538.27 685.00&#10;  A 0.79 0.79 0.0 0 0 537.48 685.79&#10;  L 537.46 715.89&#10;  A 0.60 0.60 0.0 0 1 536.86 716.49&#10;  L 532.12 716.49&#10;  A 0.58 0.58 0.0 0 1 531.53 715.91&#10;  Q 531.53 700.26 531.55 682.79&#10;  C 531.55 681.62 531.34 680.92 531.09 680.00&#10;  Z"/>
<path fill="#363534" d="&#10;  M 597.56 695.29&#10;  L 597.56 700.92&#10;  A 0.26 0.26 0.0 0 1 597.27 701.18&#10;  Q 590.16 700.30 575.64 700.85&#10;  A 0.52 0.52 0.0 0 0 575.14 701.37&#10;  L 575.14 715.76&#10;  A 0.64 0.63 -90.0 0 1 574.51 716.40&#10;  L 569.85 716.40&#10;  A 0.64 0.64 0.0 0 1 569.21 715.76&#10;  Q 569.12 699.96 569.19 682.75&#10;  C 569.19 681.57 568.88 680.91 568.63 679.98&#10;  A 0.52 0.52 0.0 0 1 569.13 679.32&#10;  L 597.93 679.32&#10;  A 0.64 0.63 -90.0 0 1 598.56 679.96&#10;  L 598.56 685.53&#10;  A 0.27 0.27 0.0 0 1 598.13 685.75&#10;  Q 596.78 684.80 595.26 684.80&#10;  Q 577.15 684.81 575.79 684.80&#10;  A 0.63 0.62 90.0 0 0 575.17 685.43&#10;  L 575.17 694.37&#10;  A 0.52 0.52 0.0 0 0 575.69 694.89&#10;  L 597.17 694.89&#10;  A 0.40 0.39 90.0 0 1 597.56 695.29&#10;  Z"/>
<rect fill="#363534" x="-3.01" y="-18.52" transform="translate(609.24,697.85) rotate(-0.1)" width="6.02" height="37.04" rx="0.26"/>
<path fill="#363534" d="&#10;  M 619.95 679.34&#10;  L 648.83 679.34&#10;  A 0.47 0.46 0.0 0 1 649.30 679.80&#10;  L 649.30 715.85&#10;  A 0.60 0.59 -0.0 0 1 648.70 716.44&#10;  L 643.98 716.44&#10;  A 0.60 0.60 0.0 0 1 643.38 715.84&#10;  L 643.38 685.70&#10;  A 0.69 0.69 0.0 0 0 642.69 685.01&#10;  L 626.60 685.01&#10;  A 0.79 0.79 0.0 0 0 625.81 685.80&#10;  L 625.81 715.85&#10;  A 0.60 0.60 0.0 0 1 625.21 716.45&#10;  L 620.47 716.45&#10;  A 0.58 0.58 0.0 0 1 619.89 715.87&#10;  Q 619.88 700.25 619.89 682.80&#10;  C 619.89 681.64 619.68 680.94 619.43 680.02&#10;  A 0.54 0.54 0.0 0 1 619.95 679.34&#10;  Z"/>
<rect fill="#363534" x="-2.99" y="-18.53" transform="translate(660.26,697.85) rotate(-0.2)" width="5.98" height="37.06" rx="0.26"/>
<path fill="#363534" d="&#10;  M 723.82 715.77&#10;  A 0.66 0.66 0.0 0 1 723.16 716.42&#10;  L 718.57 716.42&#10;  A 0.64 0.63 0.0 0 1 717.93 715.79&#10;  Q 717.96 705.86 717.97 702.49&#10;  Q 717.98 698.93 716.97 697.12&#10;  Q 715.60 694.66 708.58 681.97&#10;  Q 707.94 680.81 706.63 680.06&#10;  A 0.40 0.40 0.0 0 1 706.82 679.31&#10;  L 714.02 679.31&#10;  A 0.85 0.84 -14.3 0 1 714.76 679.74&#10;  L 721.21 690.90&#10;  A 0.25 0.25 0.0 0 0 721.64 690.91&#10;  L 728.15 680.30&#10;  A 2.11 2.10 -74.0 0 1 729.94 679.30&#10;  L 733.90 679.30&#10;  A 0.68 0.68 0.0 0 1 734.47 680.36&#10;  Q 732.12 683.95 724.76 696.28&#10;  Q 723.79 697.89 723.82 700.25&#10;  Q 723.91 708.27 723.82 715.77&#10;  Z"/>
<path fill="#363534" d="&#10;  M 670.18 679.72&#10;  C 671.23 680.20 671.91 680.65 672.95 680.65&#10;  Q 682.40 680.69 698.99 680.63&#10;  A 0.35 0.35 0.0 0 1 699.34 680.98&#10;  L 699.34 686.70&#10;  A 0.17 0.17 0.0 0 1 699.12 686.86&#10;  Q 694.77 685.61 687.77 686.31&#10;  A 0.48 0.47 87.4 0 0 687.34 686.79&#10;  L 687.34 715.86&#10;  A 0.59 0.59 0.0 0 1 686.75 716.45&#10;  L 682.10 716.45&#10;  A 0.64 0.63 90.0 0 1 681.47 715.81&#10;  L 681.47 686.71&#10;  A 0.50 0.50 0.0 0 0 680.97 686.21&#10;  L 670.44 686.21&#10;  A 0.63 0.62 0.0 0 1 669.81 685.59&#10;  L 669.81 679.96&#10;  A 0.26 0.26 0.0 0 1 670.18 679.72&#10;  Z"/>
<path fill="#363534" d="&#10;  M 416.68 679.97&#10;  A 0.26 0.26 0.0 0 1 417.05 679.73&#10;  C 418.10 680.21 418.78 680.66 419.81 680.66&#10;  Q 429.24 680.70 445.78 680.65&#10;  A 0.35 0.35 0.0 0 1 446.13 681.00&#10;  L 446.13 686.70&#10;  A 0.17 0.17 0.0 0 1 445.91 686.86&#10;  Q 441.57 685.62 434.59 686.31&#10;  A 0.48 0.47 87.4 0 0 434.16 686.79&#10;  L 434.15 715.78&#10;  A 0.59 0.59 0.0 0 1 433.56 716.37&#10;  L 428.92 716.37&#10;  A 0.64 0.63 -90.0 0 1 428.30 715.73&#10;  L 428.31 686.71&#10;  A 0.50 0.50 0.0 0 0 427.81 686.21&#10;  L 417.31 686.20&#10;  A 0.63 0.62 0.0 0 1 416.68 685.59&#10;  L 416.68 679.97&#10;  Z"/>
<rect fill="#ffffff" x="267.21" y="684.81" width="19.30" height="25.76" rx="0.75"/>
</svg>