<svg width="34" height="34" viewBox="0 0 34 34" fill="none" xmlns="http://www.w3.org/2000/svg">
<rect x="0.5" y="0.5" width="33" height="33" rx="3.5" fill="white"/>
<rect x="0.5" y="0.5" width="33" height="33" rx="3.5" stroke="#E6E9EF"/>
<g clip-path="url(#clip0_3890_12100)">
<path d="M8 19.5714L10.6124 19.5956C11.8876 21.9444 14.3152 23.4749 17.032 23.4749L17.3509 23.4678C19.8905 23.3554 22.1446 21.9067 23.386 19.7137L26 19.7379C24.5502 23.4126 21.081 26 17.032 26C12.9221 26 9.40969 23.3343 8 19.5714ZM23.4286 15.7143V18.2857H8V15.7143H23.4286ZM16.968 8L17.329 8.00688C21.2827 8.15776 24.6318 10.7764 26 14.4286L23.3876 14.4044C22.1124 12.0556 19.6848 10.5251 16.968 10.5251L16.6491 10.5322C14.1095 10.6446 11.8554 12.0933 10.614 14.2863L8 14.2621C9.44984 10.5874 12.919 8 16.968 8Z" fill="#0052D9"/>
</g>
<defs>
<clipPath id="clip0_3890_12100">
<rect width="24" height="24" fill="white" transform="translate(5 5)"/>
</clipPath>
</defs>
</svg>
