<svg viewBox="0 0 42 38" fill="none" xmlns="http://www.w3.org/2000/svg">
<g clip-path="url(#clip0_717_62534)">
<path fill-rule="evenodd" clip-rule="evenodd" d="M15.3552 11.7H9.76497L13.7323 4.13635C14.39 2.88667 15.3729 1.84117 16.5754 1.11204C17.7779 0.382915 19.1546 -0.00231934 20.5578 -0.00231934C21.961 -0.00231934 23.3377 0.382915 24.5402 1.11204C25.7427 1.84117 26.7255 2.88667 27.3833 4.13635L31.3506 11.7H25.7604L23.0554 6.47272C22.8197 6.02158 22.4662 5.64391 22.0332 5.38045C21.6002 5.11699 21.1041 4.97775 20.5984 4.97775C20.0926 4.97775 19.5965 5.11699 19.1635 5.38045C18.7305 5.64391 18.3771 6.02158 18.1414 6.47272L15.3552 11.7ZM40.9623 30.3909C41.2975 31.7936 41.1014 33.2719 40.4123 34.5364C39.8776 35.5117 39.0595 36.2985 38.068 36.7909C37.3654 37.1804 36.5868 37.41 35.7868 37.4636H23.8038C24.6679 36.9368 25.3941 36.2085 25.9212 35.3401C26.4484 34.4716 26.7612 33.4883 26.8333 32.4727H33.3523C33.6942 32.4724 34.0302 32.3826 34.3273 32.2121C34.6244 32.0416 34.8726 31.7962 35.0474 31.5C35.2269 31.1829 35.3213 30.8242 35.3213 30.4591C35.3213 30.094 35.2269 29.7352 35.0474 29.4182L29.3309 18.5091H34.9212L40.3852 28.9182C40.4523 29.0295 40.5126 29.1448 40.5656 29.2636C40.7333 29.6257 40.8662 30.0032 40.9623 30.3909ZM14.2732 17.6C14.3319 16.5886 14.6323 15.6064 15.1488 14.7374C15.6653 13.8683 16.3827 13.1381 17.2397 12.6091H6.41982V17.6H14.2732ZM15.1659 31.6V17.9636C15.1659 16.5451 15.7242 15.1845 16.7182 14.1806C17.7122 13.1767 19.0607 12.6115 20.4676 12.6091H34.7408V17.6273H23.4251C22.5441 17.6344 21.7016 17.9917 21.0803 18.6215C20.4591 19.2512 20.1093 20.1027 20.107 20.9909V29.1727C20.1078 29.3785 20.0805 29.5835 20.0258 29.7818C19.8898 30.2986 19.5896 30.7562 19.1711 31.0846C18.7526 31.413 18.2388 31.594 17.7086 31.6H15.1659ZM0.550058 29.2636C0.382297 29.6257 0.249443 30.0032 0.153329 30.3909C-0.181622 31.7965 0.0144482 33.2776 0.703339 34.5454C1.23946 35.5174 2.05744 36.3009 3.04765 36.7909C3.75021 37.1804 4.52885 37.41 5.32884 37.4636H20.5578C21.9926 37.4636 23.3687 36.889 24.3832 35.866C25.3978 34.8431 25.9678 33.4557 25.9678 32.0091V18.5H23.389C22.7551 18.5165 22.1523 18.7808 21.7081 19.2372C21.2639 19.6935 21.0131 20.3061 21.0086 20.9454V29.1273C21.0063 30.0154 20.6547 30.8663 20.031 31.4934C19.4073 32.1205 18.5624 32.4727 17.6815 32.4727H7.80839C7.4665 32.4724 7.13054 32.3826 6.8334 32.2121C6.53627 32.0416 6.28813 31.7962 6.11328 31.5C5.93387 31.1812 5.83956 30.821 5.83956 30.4545C5.83956 30.088 5.93387 29.7278 6.11328 29.4091L11.8298 18.5H6.19443L0.730389 28.9091C0.704537 28.9612 0.678684 29.0103 0.653451 29.0582C0.617081 29.1272 0.581998 29.1938 0.550058 29.2636Z" fill="currentColor"/>
</g>
<defs><clipPath id="clip0_717_62534"><rect width="42" height="38" fill="white"/></clipPath></defs>
</svg>
