<svg width="40" height="40" viewBox="0 0 40 40" fill="none" xmlns="http://www.w3.org/2000/svg">
<rect width="40" height="40" fill="white"/>
<path d="M32 16V24C32 26.2091 30.2091 28 28 28H20V32C20 34.2091 18.2091 36 16 36H12C9.79086 36 8 34.2091 8 32V16C8 13.7909 9.79086 12 12 12H16C18.2091 12 20 13.7909 20 16V20H28C30.2091 20 32 21.7909 32 24V16Z" fill="#464775"/>
<path d="M28 8H12C9.79086 8 8 9.79086 8 12V28C8 30.2091 9.79086 32 12 32H28C30.2091 32 32 30.2091 32 28V12C32 9.79086 30.2091 8 28 8Z" fill="#5B5FC7"/>
<rect x="12" y="12" width="16" height="16" rx="2" fill="white"/>
<path d="M16 16H24V18H16V16Z" fill="#5B5FC7"/>
<path d="M16 20H24V22H16V20Z" fill="#5B5FC7"/>
<path d="M16 24H20V26H16V24Z" fill="#5B5FC7"/>
<circle cx="22" cy="25" r="1" fill="#5B5FC7"/>
</svg>



